<svg width="40" height="40" viewBox="0 0 40 40" fill="none" xmlns="http://www.w3.org/2000/svg">
<path d="M18.9529 33.7159V22.5213L11.4037 30.0705C11.2029 30.2713 10.9598 30.3744 10.6746 30.3797C10.3893 30.3852 10.1409 30.2822 9.92956 30.0705C9.71789 29.8591 9.61206 29.6134 9.61206 29.3334C9.61206 29.0534 9.71789 28.8077 9.92956 28.5963L18.5258 20.0001L9.92956 11.4038C9.72873 11.203 9.62567 10.9599 9.62039 10.6747C9.61484 10.3894 9.71789 10.1411 9.92956 9.92967C10.1409 9.718 10.3866 9.61217 10.6666 9.61217C10.9466 9.61217 11.1923 9.718 11.4037 9.92967L18.9529 17.4788V6.28425C18.9529 5.87981 19.0884 5.56008 19.3596 5.32508C19.6307 5.08981 19.9296 4.97217 20.2562 4.97217C20.4123 4.97217 20.5693 5.00286 20.7271 5.06425C20.8848 5.12536 21.0325 5.22467 21.17 5.36217L27.7275 11.9201C27.865 12.0576 27.9629 12.1997 28.0212 12.3463C28.0796 12.493 28.1087 12.6554 28.1087 12.8334C28.1087 13.0115 28.0796 13.1738 28.0212 13.3205C27.9629 13.4672 27.865 13.6093 27.7275 13.7467L21.4741 20.0001L27.7275 26.2534C27.865 26.3909 27.9629 26.533 28.0212 26.6797C28.0796 26.8263 28.1087 26.9887 28.1087 27.1668C28.1087 27.3448 28.0796 27.5072 28.0212 27.6538C27.9629 27.8005 27.865 27.9426 27.7275 28.0801L21.17 34.638C21.0325 34.7755 20.8848 34.8748 20.7271 34.9359C20.5693 34.9973 20.4123 35.028 20.2562 35.028C19.9296 35.028 19.6307 34.9104 19.3596 34.6751C19.0884 34.4401 18.9529 34.1204 18.9529 33.7159ZM21.0471 17.4788L25.6925 12.8334L21.0471 8.23925V17.4788ZM21.0471 31.7609L25.6925 27.1668L21.0471 22.5213V31.7609Z" fill="#2F43EE"/>

</svg>
