<svg width="40" height="40" viewBox="0 0 40 40" fill="none" xmlns="http://www.w3.org/2000/svg">
<path d="M18.9529 22.5213L11.4038 30.0705C11.2029 30.2713 10.9599 30.3744 10.6746 30.3797C10.3893 30.3852 10.141 30.2822 9.92959 30.0705C9.71792 29.8591 9.61209 29.6134 9.61209 29.3334C9.61209 29.0534 9.71792 28.8077 9.92959 28.5963L17.8079 20.718L4.41667 7.32717C4.21584 7.12606 4.11279 6.883 4.10751 6.598C4.10223 6.31272 4.20529 6.06425 4.41667 5.85258C4.62834 5.6412 4.87404 5.5355 5.15376 5.5355C5.43376 5.5355 5.67959 5.6412 5.89126 5.85258L35.0771 35.0384C35.2779 35.2393 35.381 35.4823 35.3863 35.7676C35.3915 36.0529 35.2885 36.3013 35.0771 36.513C34.8654 36.7244 34.6197 36.8301 34.34 36.8301C34.06 36.8301 33.8142 36.7244 33.6025 36.513L26.4488 29.3588L21.17 34.638C21.0325 34.7755 20.8849 34.8748 20.7271 34.9359C20.5693 34.9973 20.4124 35.028 20.2563 35.028C19.9296 35.028 19.6307 34.9104 19.3596 34.6751C19.0885 34.4401 18.9529 34.1204 18.9529 33.7159V22.5213ZM21.0471 31.7609L24.9233 27.8847L21.0471 24.0084V31.7609ZM22.7117 18.763L21.2371 17.2713L25.6925 12.8334L21.0471 8.23925V17.0813L18.9529 14.9872V6.28425C18.9529 5.87981 19.0885 5.56008 19.3596 5.32508C19.6307 5.08981 19.9296 4.97217 20.2563 4.97217C20.4124 4.97217 20.5693 5.00286 20.7271 5.06425C20.8849 5.12536 21.0325 5.22467 21.17 5.36217L27.7275 11.9201C27.865 12.0576 27.9629 12.1997 28.0213 12.3463C28.0796 12.493 28.1088 12.6554 28.1088 12.8334C28.1088 13.0115 28.0796 13.1738 28.0213 13.3205C27.9629 13.4672 27.865 13.6093 27.7275 13.7467L22.7117 18.763Z" fill="#2F43EE"/>

</svg>
