<svg width="40" height="40" viewBox="0 0 40 40" fill="none" xmlns="http://www.w3.org/2000/svg">
<path d="M8.13038 34.5834C7.82843 34.5834 7.57843 34.4844 7.38038 34.2863C7.18232 34.0883 7.08329 33.8383 7.08329 33.5363V31.5705H6.71996C6.36329 31.5294 6.0569 31.3947 5.80079 31.1663C5.54468 30.938 5.41663 30.6383 5.41663 30.2672V25.5234C5.41663 25.2215 5.51565 24.9716 5.71371 24.7738C5.91177 24.5758 6.16177 24.4767 6.46371 24.4767H8.74996V11.4638C8.74996 9.76717 9.35996 8.33522 10.58 7.168C11.8002 6.0005 13.2736 5.41675 15 5.41675C16.6852 5.41675 18.1144 6.00327 19.2875 7.17633C20.4605 8.34939 21.047 9.77855 21.047 11.4638V28.5363C21.047 29.6455 21.4286 30.5816 22.1916 31.3447C22.955 32.1077 23.8911 32.4892 25 32.4892C26.1502 32.4892 27.1305 32.1105 27.9408 31.353C28.7508 30.5958 29.1558 29.6569 29.1558 28.5363V15.5234H26.8695C26.5676 15.5234 26.3176 15.4244 26.1195 15.2263C25.9215 15.0286 25.8225 14.7787 25.8225 14.4767V9.733C25.8225 9.36189 25.9505 9.06217 26.2066 8.83383C26.4627 8.6055 26.7693 8.47078 27.1262 8.42966H27.4891V6.46383C27.4891 6.16189 27.5882 5.91189 27.7862 5.71383C27.9843 5.51578 28.2343 5.41675 28.5362 5.41675H31.8695C32.1715 5.41675 32.4215 5.51578 32.6195 5.71383C32.8176 5.91189 32.9166 6.16189 32.9166 6.46383V8.42966H33.28C33.6366 8.47078 33.943 8.6055 34.1991 8.83383C34.4552 9.06217 34.5833 9.36189 34.5833 9.733V14.4767C34.5833 14.7787 34.4843 15.0286 34.2862 15.2263C34.0882 15.4244 33.8382 15.5234 33.5362 15.5234H31.25V28.5363C31.25 30.233 30.64 31.6649 29.42 32.8322C28.1997 33.9997 26.7263 34.5834 25 34.5834C23.3147 34.5834 21.8855 33.9969 20.7125 32.8238C19.5394 31.6508 18.9529 30.2216 18.9529 28.5363V11.4638C18.9529 10.3547 18.5713 9.41855 17.8083 8.6555C17.045 7.89244 16.1088 7.51092 15 7.51092C13.8497 7.51092 12.8694 7.88967 12.0591 8.64717C11.2491 9.40439 10.8441 10.3433 10.8441 11.4638V24.4767H13.1304C13.4323 24.4767 13.6823 24.5758 13.8804 24.7738C14.0784 24.9716 14.1775 25.2215 14.1775 25.5234V30.2672C14.1775 30.6383 14.0494 30.938 13.7933 31.1663C13.5372 31.3947 13.2307 31.5294 12.8737 31.5705H12.5108V33.5363C12.5108 33.8383 12.4118 34.0883 12.2137 34.2863C12.0157 34.4844 11.7657 34.5834 11.4637 34.5834H8.13038Z" fill="#2F43EE"/>

</svg>
