<svg width="113" height="98" fill="none" xmlns="http://www.w3.org/2000/svg">
    <path d="M56.873 0a6.62 6.62 0 1 0 6.62 6.62A6.628 6.628 0 0 0 56.873 0Zm0 11.034a4.413 4.413 0 1 1 0-8.826 4.413 4.413 0 0 1 0 8.826ZM14.225 67.305a5.517 5.517 0 1 0 5.517 5.517 5.523 5.523 0 0 0-5.517-5.517Zm0 8.827a3.31 3.31 0 1 1 0-6.62 3.31 3.31 0 0 1 0 6.62ZM86.863 10.372a1.876 1.876 0 1 0 0-3.752 1.876 1.876 0 0 0 0 3.752ZM98.741 42.883a1.25 1.25 0 1 0 0-2.5 1.25 1.25 0 0 0 0 2.5ZM103.988 23.393a1.25 1.25 0 1 0 0-2.5 1.25 1.25 0 0 0 0 2.5ZM13.709 11.621a1.25 1.25 0 1 0 0-2.5 1.25 1.25 0 0 0 0 2.5ZM19.337 45.385a1.876 1.876 0 1 0 0-3.752 1.876 1.876 0 0 0 0 3.752ZM71.231 97.903a1.25 1.25 0 1 0 0-2.5 1.25 1.25 0 0 0 0 2.5ZM9.638 45.194a1.926 1.926 0 0 0-2.723 0l-1.814 1.814-1.814-1.814a1.926 1.926 0 0 0-2.723 2.723l1.814 1.814-1.814 1.814a1.926 1.926 0 0 0 2.723 2.723l1.814-1.814 1.814 1.814a1.925 1.925 0 1 0 2.723-2.723l-1.814-1.814 1.814-1.814a1.925 1.925 0 0 0 0-2.723ZM112.131 57.699a1.924 1.924 0 0 0-2.723 0l-1.814 1.814-1.814-1.814a1.925 1.925 0 0 0-2.723 2.723l1.814 1.814-1.814 1.814a1.926 1.926 0 0 0 2.723 2.723l1.814-1.814 1.814 1.814a1.926 1.926 0 0 0 2.723-2.723l-1.814-1.814 1.814-1.814a1.922 1.922 0 0 0 0-2.723ZM31.122 84.89a5.542 5.542 0 0 0 5.536 5.535h40.964a15.5 15.5 0 0 0 6.643-29.5V38.39a1.11 1.11 0 0 0-.324-.783L70.655 24.32a1.108 1.108 0 0 0-.783-.324H36.658a5.542 5.542 0 0 0-5.536 5.536V84.89Zm59.785-9.965a13.286 13.286 0 1 1-26.572.002 13.286 13.286 0 0 1 26.572-.003v.001ZM70.98 27.776l9.506 9.506H74.3a3.325 3.325 0 0 1-3.32-3.32v-6.186Zm-37.643 1.756a3.325 3.325 0 0 1 3.321-3.32h32.108v7.75a5.542 5.542 0 0 0 5.535 5.534h7.75V60.07a15.5 15.5 0 0 0-12.4 28.14H36.658a3.325 3.325 0 0 1-3.32-3.32l-.002-55.358Z" fill="#0F4391"/>
    <path d="M71.083 73.333c0 .807.142 1.602.426 2.386.284.783.718 1.51 1.303 2.182a.503.503 0 0 1 .14.299.352.352 0 0 1-.112.293.33.33 0 0 1-.302.1.51.51 0 0 1-.298-.162 7.543 7.543 0 0 1-1.461-2.421 7.788 7.788 0 0 1-.471-2.677c0-.918.157-1.81.47-2.676a7.543 7.543 0 0 1 1.462-2.421.51.51 0 0 1 .298-.162.33.33 0 0 1 .302.1.352.352 0 0 1 .112.293.503.503 0 0 1-.14.299 6.855 6.855 0 0 0-1.303 2.182 6.962 6.962 0 0 0-.426 2.385Zm2.75 0c0 .467.076.928.228 1.382.152.454.393.877.724 1.27a.506.506 0 0 1 .11.289.366.366 0 0 1-.12.284.357.357 0 0 1-.283.117.36.36 0 0 1-.263-.143 4.983 4.983 0 0 1-.877-1.535 4.97 4.97 0 0 1-.294-1.664c0-.554.098-1.109.294-1.664a4.984 4.984 0 0 1 .877-1.534.359.359 0 0 1 .263-.144.357.357 0 0 1 .284.118.367.367 0 0 1 .117.292.483.483 0 0 1-.129.296 4.204 4.204 0 0 0-.931 2.636Zm2.31 6.956-.44 1.38a.453.453 0 0 1-.155.21.4.4 0 0 1-.242.076.394.394 0 0 1-.341-.163.427.427 0 0 1-.056-.382l2.25-6.739a1.448 1.448 0 0 1-.564-.583 1.591 1.591 0 0 1-.198-.755c0-.444.156-.822.468-1.134.312-.312.69-.468 1.135-.468.445 0 .823.156 1.135.468.312.312.468.69.468 1.134 0 .256-.061.502-.182.739a1.518 1.518 0 0 1-.58.6l2.25 6.738a.42.42 0 0 1-.053.372.38.38 0 0 1-.34.173.383.383 0 0 1-.236-.074.453.453 0 0 1-.15-.211l-.45-1.382h-3.72Zm.285-.834h3.144L78 74.711l-1.572 4.744Zm5.739-6.122c0-.435-.079-.887-.236-1.357a4.086 4.086 0 0 0-.716-1.295.506.506 0 0 1-.11-.288.365.365 0 0 1 .12-.284.36.36 0 0 1 .285-.118.346.346 0 0 1 .26.144c.387.467.677.982.871 1.542.194.56.295 1.118.301 1.672 0 .555-.095 1.107-.286 1.657a4.723 4.723 0 0 1-.885 1.526.36.36 0 0 1-.263.143.357.357 0 0 1-.284-.117.366.366 0 0 1-.117-.292.482.482 0 0 1 .129-.297 4.204 4.204 0 0 0 .931-2.636Zm2.75 0c0-.806-.142-1.602-.426-2.385a6.857 6.857 0 0 0-1.303-2.182.504.504 0 0 1-.14-.299.352.352 0 0 1 .112-.294.33.33 0 0 1 .302-.1c.116.02.215.074.298.163a7.543 7.543 0 0 1 1.461 2.421c.314.865.471 1.758.471 2.676a8.02 8.02 0 0 1-.455 2.677c-.304.865-.795 1.672-1.473 2.421a.544.544 0 0 1-.3.164.328.328 0 0 1-.304-.102.352.352 0 0 1-.112-.293c.01-.111.057-.21.14-.3a6.858 6.858 0 0 0 1.303-2.181 6.962 6.962 0 0 0 .426-2.386Z" fill="#0F4391"/>
    <path d="M48.836 45.031a1.107 1.107 0 0 0 1.107 1.107h26.571a1.107 1.107 0 0 0 0-2.214h-26.57a1.107 1.107 0 0 0-1.108 1.107ZM38.872 52.781h22.143a1.107 1.107 0 1 0 0-2.214H38.872a1.107 1.107 0 0 0 0 2.214ZM65.443 57.21h-8.857a1.107 1.107 0 1 0 0 2.214h8.857a1.107 1.107 0 1 0 0-2.214ZM38.872 66.067H58.8a1.107 1.107 0 1 0 0-2.214H38.872a1.107 1.107 0 0 0 0 2.214ZM38.872 46.138h6.643a1.107 1.107 0 0 0 0-2.214h-6.643a1.107 1.107 0 0 0 0 2.214ZM76.515 50.567H65.443a1.107 1.107 0 0 0 0 2.214h11.071a1.107 1.107 0 1 0 0-2.214h.001ZM38.872 59.424h13.286a1.107 1.107 0 1 0 0-2.214H38.872a1.107 1.107 0 0 0 0 2.214ZM56.586 77.14h-4.429a1.107 1.107 0 1 0 0 2.213h4.429a1.107 1.107 0 1 0 0-2.214ZM38.872 79.353h8.857a1.107 1.107 0 1 0 0-2.214h-8.857a1.107 1.107 0 0 0 0 2.214ZM38.872 72.71h6.643a1.107 1.107 0 1 0 0-2.214h-6.643a1.107 1.107 0 0 0 0 2.214ZM38.872 39.496h13.286a1.107 1.107 0 1 0 0-2.214H38.872a1.107 1.107 0 0 0 0 2.214ZM56.586 70.496h-6.643a1.107 1.107 0 1 0 0 2.214h6.643a1.107 1.107 0 1 0 0-2.214ZM56.964 39.889a2.101 2.101 0 0 0 2.974 0l.676-.676.676.676a2.103 2.103 0 1 0 2.974-2.974l-.676-.676.676-.676a2.103 2.103 0 1 0-2.974-2.974l-.676.676-.676-.676a2.103 2.103 0 1 0-2.974 2.974l.676.676-.676.676a2.1 2.1 0 0 0 0 2.974Zm2.162-4.145-1.171-1.172a.7.7 0 0 1 .99-.991l1.172 1.172a.7.7 0 0 0 .99 0l1.173-1.172a.7.7 0 0 1 .99.99l-1.17 1.173a.7.7 0 0 0 0 .99l1.172 1.17a.7.7 0 1 1-.991.992l-1.172-1.172a.697.697 0 0 0-.991 0l-1.171 1.17a.7.7 0 0 1-.991-.99l1.17-1.172a.7.7 0 0 0 0-.988Z" fill="#0F4391"/>
</svg>
