<svg width="40" height="40" viewBox="0 0 40 40" fill="none" xmlns="http://www.w3.org/2000/svg">
<path d="M19.9912 28.3845C21.8682 28.3845 23.4482 27.743 24.7312 26.4599C26.0143 25.1769 26.6558 23.5969 26.6558 21.7199C26.6558 19.8433 26.0143 18.2662 24.7312 16.9887C23.4482 15.7112 21.8682 15.0724 19.9912 15.0724C18.1145 15.0724 16.5375 15.7112 15.26 16.9887C13.9827 18.2662 13.3441 19.8433 13.3441 21.7199C13.3441 23.5969 13.9827 25.1769 15.26 26.4599C16.5375 27.743 18.1145 28.3845 19.9912 28.3845ZM19.9912 26.2903C18.6907 26.2903 17.6066 25.8538 16.7391 24.9808C15.8716 24.1074 15.4379 23.0205 15.4379 21.7199C15.4379 20.4194 15.8716 19.3353 16.7391 18.4678C17.6066 17.6003 18.6907 17.1666 19.9912 17.1666C21.292 17.1666 22.379 17.6003 23.252 18.4678C24.1254 19.3353 24.562 20.4194 24.562 21.7199C24.562 23.0205 24.1254 24.1074 23.252 24.9808C22.379 25.8538 21.292 26.2903 19.9912 26.2903ZM6.77371 34.1666C6.05732 34.1666 5.44371 33.9112 4.93288 33.4003C4.42204 32.8895 4.16663 32.2759 4.16663 31.5595V11.9145C4.16663 11.2078 4.42204 10.5967 4.93288 10.0812C5.44371 9.56561 6.05732 9.30784 6.77371 9.30784H12.2862L14.5725 6.69742C14.8047 6.41492 15.0904 6.2002 15.4295 6.05325C15.7687 5.90659 16.1341 5.83325 16.5258 5.83325H23.4741C23.8658 5.83325 24.2312 5.90659 24.5704 6.05325C24.9095 6.2002 25.1952 6.41492 25.4275 6.69742L27.7137 9.30784H33.2262C33.9329 9.30784 34.544 9.56561 35.0595 10.0812C35.5754 10.5967 35.8333 11.2078 35.8333 11.9145V31.5595C35.8333 32.2759 35.5754 32.8895 35.0595 33.4003C34.544 33.9112 33.9329 34.1666 33.2262 34.1666H6.77371ZM6.77371 32.0724H33.2262C33.3759 32.0724 33.4988 32.0244 33.595 31.9283C33.6911 31.8321 33.7391 31.7092 33.7391 31.5595V11.9145C33.7391 11.772 33.6911 11.6509 33.595 11.5512C33.4988 11.4514 33.3759 11.4016 33.2262 11.4016H26.7562L23.6987 7.92742H16.3012L13.2437 11.4016H6.77371C6.62399 11.4016 6.50107 11.4514 6.40496 11.5512C6.30885 11.6509 6.26079 11.772 6.26079 11.9145V31.5595C6.26079 31.7092 6.30885 31.8321 6.40496 31.9283C6.50107 32.0244 6.62399 32.0724 6.77371 32.0724Z" fill="#2F43EE"/>

</svg>
