<svg width="138" height="102" viewBox="0 0 138 102" fill="none" xmlns="http://www.w3.org/2000/svg">
<path d="M26.452 74.108V89H21.794V75.808H16.83V89H12.172V75.808H7.208V89H2.55V71.83H6.392L7.208 73.224L9.622 71.83H12.886L16.048 73.666L19.244 71.83H22.508L26.452 74.108ZM36.6363 78.8V89H31.8763V65.2H36.6363V74.72H45.9863V65.2H50.7463V89H45.9863V78.8H36.6363ZM70.283 85.022V89H60.117L56.173 86.722V74.108L60.117 71.83H66.339L70.283 74.108V82.234H60.831V85.022H70.283ZM60.831 75.808V78.732H65.625V75.808H60.831ZM79.3757 82.302V85.26H84.1697V82.302H79.3757ZM78.6617 89.17L74.7177 86.892V81.01L78.6617 78.732H84.1697V75.978H76.4177V72H84.8837L88.8277 74.278V89.17H86.5837L84.1697 87.776L81.7557 89.17H78.6617ZM97.869 89L93.925 86.722V64.18H98.583V85.022H101.983V89H97.869ZM103.688 75.978V72H106.816V69.144L111.474 66.458V72H115.214V75.978H111.474V85.022H115.214V89H110.76L106.816 86.722V75.978H103.688ZM124.282 89H119.624V64.18H124.282V73.224L126.696 71.83H131.15L135.094 74.108V89H130.436V75.808H124.282V89Z" fill="#3042EE"/>
<path d="M66.9997 25.0008V29.1269C66.9997 29.3792 67.0823 29.588 67.2474 29.7531C67.4125 29.9182 67.6213 30.0008 67.8736 30.0008H70.2258C70.442 30.0008 70.6251 29.9182 70.7749 29.7531C70.9248 29.588 70.9997 29.3792 70.9997 29.1269V25.0008H75.2258C75.442 25.0008 75.6251 24.9182 75.7749 24.7531C75.9248 24.588 75.9997 24.3792 75.9997 24.1269V21.7747C75.9997 21.5585 75.9248 21.3755 75.7749 21.2256C75.6251 21.0757 75.442 21.0008 75.2258 21.0008H70.9997V16.7747C70.9997 16.5585 70.9248 16.3755 70.7749 16.2256C70.6251 16.0757 70.442 16.0008 70.2258 16.0008H67.8736C67.6213 16.0008 67.4125 16.0757 67.2474 16.2256C67.0823 16.3755 66.9997 16.5585 66.9997 16.7747V21.0008H62.8736C62.6213 21.0008 62.4125 21.0757 62.2474 21.2256C62.0823 21.3755 61.9997 21.5585 61.9997 21.7747V24.1269C61.9997 24.3792 62.0823 24.588 62.2474 24.7531C62.4125 24.9182 62.6213 25.0008 62.8736 25.0008H66.9997ZM68.9997 44.6487C68.7847 44.6487 68.5774 44.6342 68.3779 44.6052C68.1783 44.5762 67.991 44.516 67.816 44.4247C62.9986 42.866 59.1859 39.9537 56.378 35.6878C53.57 31.4218 52.166 26.8095 52.166 21.8508V12.0584C52.166 11.2321 52.3986 10.4857 52.8639 9.81906C53.3292 9.15246 53.9444 8.6645 54.7095 8.35516L67.678 3.50297C68.0939 3.36167 68.5345 3.29102 68.9997 3.29102C69.465 3.29102 69.9222 3.36167 70.3715 3.50297L83.3399 8.35516C84.0717 8.6645 84.6722 9.15246 85.1415 9.81906C85.6107 10.4857 85.8454 11.2321 85.8454 12.0584V21.8508C85.8454 26.8095 84.4394 31.4218 81.6274 35.6878C78.8155 39.9537 75.0175 42.866 70.2334 44.4248C70.0251 44.516 69.8212 44.5762 69.6216 44.6052C69.422 44.6342 69.2147 44.6487 68.9997 44.6487Z" fill="#3042EE"/>
</svg>
