<svg xmlns="http://www.w3.org/2000/svg" width="24" height="24" viewBox="0 0 24 24" fill="none">
<path d="M11.3257 12.8507V16.2507C11.3257 16.4632 11.398 16.6414 11.5426 16.7851C11.6872 16.9289 11.8664 17.0007 12.0801 17.0007C12.2939 17.0007 12.4716 16.9289 12.6132 16.7851C12.7549 16.6414 12.8257 16.4632 12.8257 16.2507V12.8507H16.2507C16.4632 12.8507 16.6414 12.7784 16.7851 12.6339C16.9289 12.4893 17.0007 12.3101 17.0007 12.0964C17.0007 11.8826 16.9289 11.7049 16.7851 11.5632C16.6414 11.4216 16.4632 11.3507 16.2507 11.3507H12.8257V7.75073C12.8257 7.53823 12.7534 7.36011 12.6089 7.21636C12.4643 7.07261 12.2851 7.00073 12.0714 7.00073C11.8576 7.00073 11.6799 7.07261 11.5382 7.21636C11.3966 7.36011 11.3257 7.53823 11.3257 7.75073V11.3507H7.75073C7.53823 11.3507 7.36011 11.423 7.21636 11.5676C7.07261 11.7122 7.00073 11.8914 7.00073 12.1051C7.00073 12.3189 7.07261 12.4966 7.21636 12.6382C7.36011 12.7799 7.53823 12.8507 7.75073 12.8507H11.3257ZM12.0074 22.0007C10.6285 22.0007 9.33265 21.7382 8.11988 21.2132C6.90712 20.6882 5.84657 19.9716 4.93823 19.0632C4.0299 18.1549 3.31323 17.0937 2.78823 15.8797C2.26323 14.6657 2.00073 13.3685 2.00073 11.9882C2.00073 10.6079 2.26323 9.31076 2.78823 8.09676C3.31323 6.88274 4.0299 5.82573 4.93823 4.92573C5.84657 4.02573 6.90774 3.31323 8.12176 2.78823C9.33576 2.26323 10.6329 2.00073 12.0132 2.00073C13.3935 2.00073 14.6907 2.26323 15.9047 2.78823C17.1187 3.31323 18.1757 4.02573 19.0757 4.92573C19.9757 5.82573 20.6882 6.88407 21.2132 8.10073C21.7382 9.3174 22.0007 10.6152 22.0007 11.9941C22.0007 13.373 21.7382 14.6688 21.2132 15.8816C20.6882 17.0943 19.9757 18.1534 19.0757 19.0586C18.1757 19.9639 17.1174 20.6806 15.9007 21.2086C14.6841 21.7367 13.3863 22.0007 12.0074 22.0007ZM12.0132 20.5007C14.3716 20.5007 16.3757 19.6716 18.0257 18.0132C19.6757 16.3549 20.5007 14.3466 20.5007 11.9882C20.5007 9.6299 19.6773 7.62573 18.0304 5.97573C16.3835 4.32573 14.3736 3.50073 12.0007 3.50073C9.65073 3.50073 7.64657 4.32417 5.98823 5.97103C4.3299 7.61792 3.50073 9.62782 3.50073 12.0007C3.50073 14.3507 4.3299 16.3549 5.98823 18.0132C7.64657 19.6716 9.6549 20.5007 12.0132 20.5007Z" fill="#3042ee"/>
</svg>