<svg width="24" height="24" viewBox="0 0 24 24" fill="none" xmlns="http://www.w3.org/2000/svg">
<path fill-rule="evenodd" clip-rule="evenodd" d="M6.10015 12.9132L11.745 18.5906C11.9012 18.7477 11.9012 19.0025 11.745 19.1596L11.0265 19.8822C10.8703 20.0393 10.6171 20.0393 10.4609 19.8822L3.26595 12.6458C2.91135 12.2891 2.91135 11.7109 3.26595 11.3542L10.4609 4.11783C10.6171 3.96072 10.8703 3.96072 11.0265 4.11783L11.745 4.84041C11.9012 4.99753 11.9012 5.25225 11.745 5.40936L6.10015 11.0868H20.6C20.8209 11.0868 21 11.2669 21 11.4891V12.5109C21 12.7331 20.8209 12.9132 20.6 12.9132H6.10015Z" fill="#424242"/>
</svg>
