<svg width="20" height="20" viewBox="0 0 20 20" fill="none" xmlns="http://www.w3.org/2000/svg">
<path fill-rule="evenodd" clip-rule="evenodd" d="M8.78572 8.78572V0.4C8.78572 0.179086 8.9648 0 9.18571 0H10.8143C11.0352 0 11.2143 0.179086 11.2143 0.4V8.78572H19.6C19.8209 8.78572 20 8.9648 20 9.18571V10.8143C20 11.0352 19.8209 11.2143 19.6 11.2143H11.2143V19.6C11.2143 19.8209 11.0352 20 10.8143 20H9.18571C8.9648 20 8.78572 19.8209 8.78572 19.6V11.2143H0.4C0.179086 11.2143 0 11.0352 0 10.8143V9.18571C0 8.9648 0.179086 8.78572 0.4 8.78572H8.78572Z" fill="white"/>
</svg>
