<svg width="14" height="16" viewBox="0 0 14 16" fill="none" xmlns="http://www.w3.org/2000/svg">
<path fill-rule="evenodd" clip-rule="evenodd" d="M3.54842 0.5C3.8725 0.5 4.13522 0.763059 4.13522 1.08756V1.53687H9.86517V1.08756C9.86517 0.763059 10.1279 0.5 10.452 0.5C10.7761 0.5 11.0388 0.763059 11.0388 1.08756V1.53687H11.8327C12.9193 1.53687 13.8002 2.41889 13.8002 3.50691V13.53C13.8002 14.618 12.9193 15.5 11.8327 15.5H2.16771C1.08108 15.5 0.200195 14.618 0.200195 13.53V3.50691C0.200195 2.41889 1.08108 1.53687 2.16771 1.53687H2.96162V1.08756C2.96162 0.763059 3.22434 0.5 3.54842 0.5ZM2.16771 2.71198C1.72924 2.71198 1.3738 3.06788 1.3738 3.50691V4.64747H12.6266V3.50691C12.6266 3.06788 12.2711 2.71198 11.8327 2.71198H2.16771ZM12.6266 5.82258H1.3738V13.53C1.3738 13.969 1.72924 14.3249 2.16771 14.3249H11.8327C12.2711 14.3249 12.6266 13.969 12.6266 13.53V5.82258Z" fill="#424242"/>
<path d="M4.58402 8.34535C4.58402 8.918 4.12039 9.38222 3.54849 9.38222C2.97658 9.38222 2.51295 8.918 2.51295 8.34535C2.51295 7.77271 2.97658 7.30849 3.54849 7.30849C4.12039 7.30849 4.58402 7.77271 4.58402 8.34535Z" fill="#424242"/>
<path d="M8.0358 8.34535C8.0358 8.918 7.57217 9.38222 7.00026 9.38222C6.42835 9.38222 5.96473 8.918 5.96473 8.34535C5.96473 7.77271 6.42835 7.30849 7.00026 7.30849C7.57217 7.30849 8.0358 7.77271 8.0358 8.34535Z" fill="#424242"/>
<path d="M11.4876 8.34535C11.4876 8.918 11.0239 9.38222 10.452 9.38222C9.88013 9.38222 9.41651 8.918 9.41651 8.34535C9.41651 7.77271 9.88013 7.30849 10.452 7.30849C11.0239 7.30849 11.4876 7.77271 11.4876 8.34535Z" fill="#424242"/>
</svg>
