<svg width="18" height="18" viewBox="0 0 18 18" fill="none" xmlns="http://www.w3.org/2000/svg">
<path d="M4.0502 16.1988C3.67895 16.1988 3.36113 16.0666 3.09676 15.8023C2.83238 15.5379 2.7002 15.2201 2.7002 14.8488V5.17383C2.7002 4.98258 2.7645 4.82227 2.89311 4.69289C3.02174 4.56352 3.18111 4.49883 3.37124 4.49883C3.56138 4.49883 3.72207 4.56352 3.85332 4.69289C3.98457 4.82227 4.0502 4.98258 4.0502 5.17383V14.8488H11.9252C12.1164 14.8488 12.2768 14.9131 12.4061 15.0417C12.5355 15.1704 12.6002 15.3297 12.6002 15.5199C12.6002 15.71 12.5355 15.8707 12.4061 16.002C12.2768 16.1332 12.1164 16.1988 11.9252 16.1988H4.0502ZM6.7502 13.4988C6.37895 13.4988 6.06113 13.3666 5.79676 13.1023C5.53238 12.8379 5.4002 12.5201 5.4002 12.1488V3.14883C5.4002 2.77758 5.53238 2.45977 5.79676 2.19539C6.06113 1.93102 6.37895 1.79883 6.7502 1.79883H13.9502C14.3214 1.79883 14.6393 1.93102 14.9036 2.19539C15.168 2.45977 15.3002 2.77758 15.3002 3.14883V12.1488C15.3002 12.5201 15.168 12.8379 14.9036 13.1023C14.6393 13.3666 14.3214 13.4988 13.9502 13.4988H6.7502Z" fill="#9E9E9E"/>
</svg>
