<svg width="21.295" height="16.76" viewBox="0 0 21.295 16.76" xmlns="http://www.w3.org/2000/svg">
    <defs/>
    <path fill="#3042EE" stroke="none" transform="matrix(1 0 0 1 0 -44.8)" d="M 20.586 47.411 C 20.14819555429 46.95255230105 19.53987746835 46.69618967912 18.906 46.703 L 15.546 46.703 L 15.546 46.663 C 15.55074824292 46.16829438194 15.35356908261 45.69304204683 15 45.347 C 14.65185761547 44.99642739125 14.17806884067 44.7994954309 13.684 44.8 L 7.611 44.8 C 7.11385970495 44.79546956826 6.63546569697 44.98951419173 6.28195409931 45.33908328088 C 5.92844250164 45.68865237002 5.72904508303 46.16484016094 5.728 46.662 L 5.728 46.702 L 2.389 46.702 C 1.75512253165 46.69518967912 1.14680444571 46.95155230105 0.709 47.41 C 0.2612414639 47.85558960838 0.00659597935 48.45934004496 0 49.091 L 0 59.171 C -0.00681032088 59.80487746835 0.24955230105 60.41319555429 0.708 60.851 C 1.15350613673 61.29815004863 1.75683011042 61.55240800897 2.388 61.559 L 18.906 61.559 C 19.53987746835 61.56581032088 20.14819555429 61.30944769895 20.586 60.851 C 21.03315004863 60.40549386327 21.28740800897 59.80216988958 21.294 59.171 L 21.294 49.091 C 21.30081032088 48.45712253165 21.04444769895 47.84880444571 20.586 47.411 Z M 20.242 59.172 L 20.222 59.172 C 20.22279894148 59.52126921328 20.08440591413 59.85646336351 19.83743463882 60.10343463882 C 19.59046336351 60.35040591413 19.25526921328 60.48879894148 18.906 60.488 L 2.389 60.488 C 2.03973078672 60.48879894148 1.70453663649 60.35040591413 1.45756536118 60.10343463882 C 1.21059408587 59.85646336351 1.07220105852 59.52126921328 1.073 59.172 L 1.073 49.091 C 1.07220105852 48.74173078672 1.21059408587 48.40653663649 1.45756536118 48.15956536118 C 1.70453663649 47.91259408587 2.03973078672 47.77420105852 2.389 47.775 L 6.3 47.775 C 6.44531828969 47.77580362191 6.58491728774 47.71843152631 6.68767440702 47.61567440702 C 6.79043152631 47.51291728774 6.84780362191 47.37331828969 6.847 47.228 L 6.847 46.641 C 6.83936302433 46.42949534538 6.92003454153 46.22434221709 7.06968837931 46.07468837931 C 7.21934221709 45.92503454153 7.42449534538 45.84436302433 7.636 45.852 L 13.688 45.852 C 13.89950465462 45.84436302433 14.10465778291 45.92503454153 14.25431162069 46.07468837931 C 14.40396545847 46.22434221709 14.48463697567 46.42949534538 14.477 46.641 L 14.477 47.228 C 14.47619637809 47.37331828969 14.53356847369 47.51291728774 14.63632559298 47.61567440702 C 14.73908271226 47.71843152631 14.87868171031 47.77580362191 15.024 47.775 L 18.931 47.775 C 19.28026921328 47.77420105852 19.61546336351 47.91259408587 19.86243463882 48.15956536118 C 20.10940591413 48.40653663649 20.24779894148 48.74173078672 20.247 49.091 Z"/>
    <path fill="#3042EE" stroke="none" transform="matrix(1 0 0 1 -106.332 -126.448)" d="M 116.979 130.8 C 114.6053851327 130.80184692722 112.56352746898 132.47993689025 112.10188868897 134.80822823503 C 111.64024990895 137.13651957982 112.88736795396 139.46672670038 115.08071215525 140.37408118683 C 117.27405635654 141.28143567328 119.80291556844 140.51329523736 121.12105869141 138.53932723945 C 122.43920181437 136.56535924154 122.17960724901 133.93519207869 120.501 132.257 C 119.56616009734 131.32425347767 118.29958382347 130.80028935756 116.979 130.8 Z M 119.732 138.553 C 118.20778559305 140.06430001816 115.75021440695 140.06430001816 114.226 138.553 C 113.49599375735 137.82327972979 113.08774305896 136.83217375742 113.092 135.8 C 113.09706776991 134.76967343938 113.50391419866 133.7819765978 114.226 133.047 C 114.95572027021 132.31699375735 115.94682624258 131.90874305896 116.979 131.913 C 118.00932656062 131.91806776991 118.9970234022 132.32491419866 119.732 133.047 C 120.46200624265 133.77672027021 120.87025694104 134.76782624258 120.866 135.8 C 120.87961090689 136.83398284589 120.4699206108 137.82858371461 119.732 138.553 Z"/>
    <path fill="#3042EE" stroke="none" transform="matrix(1 0 0 1 16.862 4.332)" d="M 1.984 0.992 C 1.984 1.53986647183 1.53986647183 1.984 0.992 1.984 C 0.44413352817 1.984 0 1.53986647183 0 0.992 C -0 0.44413352817 0.44413352817 0 0.992 0 C 1.53986647183 -0 1.984 0.44413352817 1.984 0.992 Z"/>
</svg>
