<svg xmlns="http://www.w3.org/2000/svg" width="25" height="24" viewBox="0 0 25 24" fill="none">
<path d="M18.825 18.275C19.2903 18.275 19.6858 18.112 20.0114 17.786C20.3372 17.46 20.5 17.0642 20.5 16.5985C20.5 16.1328 20.3372 15.7417 20.0114 15.425C19.6858 15.1083 19.2903 14.95 18.825 14.95C18.3667 14.95 17.9771 15.1113 17.6562 15.4338C17.3354 15.7564 17.175 16.148 17.175 16.6088C17.175 17.0696 17.3354 17.4625 17.6562 17.7875C17.9771 18.1125 18.3667 18.275 18.825 18.275ZM18.8197 21.6C19.3732 21.6 19.8917 21.4708 20.375 21.2125C20.8583 20.9542 21.25 20.6 21.55 20.15C21.1167 19.9167 20.675 19.7292 20.225 19.5875C19.775 19.4458 19.3083 19.375 18.825 19.375C18.3417 19.375 17.875 19.4458 17.425 19.5875C16.975 19.7292 16.5333 19.9167 16.1 20.15C16.4 20.6 16.7899 20.9542 17.2697 21.2125C17.7494 21.4708 18.2661 21.6 18.8197 21.6ZM5 21C4.5875 21 4.23438 20.8531 3.94063 20.5594C3.64688 20.2656 3.5 19.9125 3.5 19.5V4.5C3.5 4.0875 3.64688 3.73438 3.94063 3.44063C4.23438 3.14688 4.5875 3 5 3H20C20.4125 3 20.7656 3.14688 21.0594 3.44063C21.3531 3.73438 21.5 4.0875 21.5 4.5V12.725C21.2667 12.5917 21.0208 12.4833 20.7625 12.4C20.5042 12.3167 20.25 12.25 20 12.2V4.5H5V19.5H12.725C12.7917 19.7667 12.8669 20.0264 12.9506 20.2793C13.0343 20.5322 13.1341 20.7724 13.25 21H5ZM5 18.325V19.5V4.5V12.2V12.1V18.325ZM7.5 16.2544C7.5 16.4681 7.57188 16.6458 7.71563 16.7875C7.85938 16.9292 8.0375 17 8.25 17H12.7649C12.8383 16.7333 12.9167 16.475 13 16.225C13.0833 15.975 13.1917 15.7333 13.325 15.5H8.25C8.0375 15.5 7.85938 15.5723 7.71563 15.7169C7.57188 15.8615 7.5 16.0406 7.5 16.2544ZM7.5 12.0044C7.5 12.2181 7.57188 12.3958 7.71563 12.5375C7.85938 12.6792 8.0375 12.75 8.25 12.75H16.1C16.3333 12.6333 16.5583 12.5375 16.775 12.4625C16.9917 12.3875 17.2333 12.3167 17.5 12.25V12C17.5 11.8 17.425 11.625 17.275 11.475C17.125 11.325 16.95 11.25 16.75 11.25H8.25C8.0375 11.25 7.85938 11.3223 7.71563 11.4669C7.57188 11.6115 7.5 11.7906 7.5 12.0044ZM7.5 7.75437C7.5 7.96812 7.57188 8.14583 7.71563 8.2875C7.85938 8.42917 8.0375 8.5 8.25 8.5H16.75C16.9625 8.5 17.1406 8.42771 17.2844 8.28313C17.4281 8.13853 17.5 7.95936 17.5 7.74563C17.5 7.53188 17.4281 7.35417 17.2844 7.2125C17.1406 7.07083 16.9625 7 16.75 7H8.25C8.0375 7 7.85938 7.07229 7.71563 7.21687C7.57188 7.36147 7.5 7.54064 7.5 7.75437ZM18.8125 22.975C17.5208 22.975 16.4167 22.5125 15.5 21.5875C14.5833 20.6625 14.125 19.5667 14.125 18.3C14.125 16.9928 14.5833 15.8784 15.4998 14.9571C16.4163 14.0357 17.5247 13.575 18.825 13.575C20.1083 13.575 21.2125 14.0357 22.1375 14.9571C23.0625 15.8784 23.525 16.9928 23.525 18.3C23.525 19.5667 23.0625 20.6625 22.1375 21.5875C21.2125 22.5125 20.1042 22.975 18.8125 22.975Z" fill="#3042ee"/>
</svg>