<?xml version="1.0" encoding="UTF-8"?>
<svg xmlns="http://www.w3.org/2000/svg" xmlns:xlink="http://www.w3.org/1999/xlink" width="15px" height="15px" viewBox="0 0 15 14" version="1.1">
<g id="surface1">
<path style=" stroke:none;fill-rule:nonzero;fill:rgb(18.431373%,77.647059%,11.764706%);fill-opacity:1;" d="M 7.488281 12.734375 C 10.871094 12.734375 13.617188 10.132812 13.617188 6.925781 C 13.617188 3.71875 10.871094 1.121094 7.488281 1.121094 C 4.101562 1.121094 1.359375 3.71875 1.359375 6.925781 C 1.359375 10.132812 4.101562 12.734375 7.488281 12.734375 Z M 7.488281 12.734375 "/>
<path style=" stroke:none;fill-rule:nonzero;fill:rgb(100%,100%,100%);fill-opacity:1;" d="M 7.5 0 C 6.042969 0 4.621094 0.410156 3.410156 1.175781 C 2.199219 1.941406 1.257812 3.03125 0.699219 4.304688 C 0.144531 5.578125 -0.00390625 6.980469 0.28125 8.335938 C 0.566406 9.6875 1.265625 10.929688 2.296875 11.90625 C 3.324219 12.878906 4.636719 13.542969 6.0625 13.8125 C 7.492188 14.082031 8.972656 13.945312 10.316406 13.417969 C 11.660156 12.886719 12.8125 11.996094 13.621094 10.847656 C 14.429688 9.699219 14.859375 8.351562 14.859375 6.972656 C 14.859375 6.058594 14.667969 5.152344 14.300781 4.304688 C 13.929688 3.457031 13.386719 2.691406 12.703125 2.042969 C 12.019531 1.394531 11.210938 0.882812 10.316406 0.53125 C 9.421875 0.179688 8.464844 0 7.5 0 Z M 11.550781 4.835938 L 6.292969 9.816406 C 6.195312 9.910156 6.0625 9.960938 5.921875 9.960938 C 5.785156 9.960938 5.648438 9.910156 5.550781 9.816406 L 3.449219 7.824219 C 3.398438 7.777344 3.359375 7.722656 3.332031 7.664062 C 3.304688 7.605469 3.289062 7.539062 3.289062 7.472656 C 3.285156 7.34375 3.339844 7.214844 3.433594 7.121094 C 3.53125 7.023438 3.664062 6.96875 3.804688 6.96875 C 3.945312 6.964844 4.078125 7.015625 4.179688 7.105469 L 4.191406 7.121094 L 5.921875 8.761719 L 10.808594 4.128906 C 10.90625 4.039062 11.039062 3.992188 11.179688 3.992188 C 11.316406 3.992188 11.449219 4.046875 11.542969 4.136719 C 11.640625 4.230469 11.699219 4.355469 11.699219 4.484375 C 11.699219 4.617188 11.648438 4.742188 11.550781 4.835938 Z M 11.550781 4.835938 "/>
</g>
</svg>
