<svg width="24" height="24" viewBox="0 0 24 24" fill="none" xmlns="http://www.w3.org/2000/svg">
<path d="M12.0015 13.1681L15.1181 16.2848C15.2793 16.4459 15.4737 16.5265 15.7015 16.5265C15.9292 16.5265 16.1237 16.4459 16.2848 16.2848C16.4459 16.1237 16.5265 15.9292 16.5265 15.7015C16.5265 15.4737 16.4459 15.2793 16.2848 15.1181L13.1681 12.0015L16.2848 8.88479C16.4459 8.72367 16.5265 8.52923 16.5265 8.30147C16.5265 8.07368 16.4459 7.87924 16.2848 7.71814C16.1237 7.55702 15.9292 7.47647 15.7015 7.47647C15.4737 7.47647 15.2793 7.55702 15.1181 7.71814L12.0015 10.8348L8.88479 7.71814C8.72367 7.55702 8.52923 7.47647 8.30147 7.47647C8.07368 7.47647 7.87924 7.55702 7.71814 7.71814C7.55702 7.87924 7.47647 8.07368 7.47647 8.30147C7.47647 8.52923 7.55702 8.72367 7.71814 8.88479L10.8348 12.0015L7.71814 15.1181C7.55702 15.2793 7.47647 15.4737 7.47647 15.7015C7.47647 15.9292 7.55702 16.1237 7.71814 16.2848C7.87924 16.4459 8.07368 16.5265 8.30147 16.5265C8.52923 16.5265 8.72367 16.4459 8.88479 16.2848L12.0015 13.1681ZM12.0015 22.0015C10.6292 22.0015 9.33481 21.739 8.11814 21.214C6.90147 20.689 5.84036 19.9737 4.93479 19.0681C4.02924 18.1626 3.31396 17.1015 2.78896 15.8848C2.26396 14.6681 2.00146 13.3737 2.00146 12.0015C2.00146 10.6181 2.26396 9.31813 2.78896 8.10147C3.31396 6.8848 4.02924 5.82647 4.93479 4.92647C5.84036 4.02646 6.90147 3.31396 8.11814 2.78896C9.33481 2.26396 10.6292 2.00146 12.0015 2.00146C13.3848 2.00146 14.6848 2.26396 15.9015 2.78896C17.1181 3.31396 18.1765 4.02646 19.0765 4.92647C19.9765 5.82647 20.689 6.8848 21.214 8.10147C21.739 9.31813 22.0015 10.6181 22.0015 12.0015C22.0015 13.3737 21.739 14.6681 21.214 15.8848C20.689 17.1015 19.9765 18.1626 19.0765 19.0681C18.1765 19.9737 17.1181 20.689 15.9015 21.214C14.6848 21.739 13.3848 22.0015 12.0015 22.0015ZM12.0015 20.3348C14.3237 20.3348 16.2931 19.5237 17.9098 17.9015C19.5265 16.2792 20.3348 14.3126 20.3348 12.0015C20.3348 9.67925 19.5265 7.7098 17.9098 6.09312C16.2931 4.47645 14.3237 3.66812 12.0015 3.66812C9.69035 3.66812 7.72368 4.47645 6.10147 6.09312C4.47923 7.7098 3.66812 9.67925 3.66812 12.0015C3.66812 14.3126 4.47923 16.2792 6.10147 17.9015C7.72368 19.5237 9.69035 20.3348 12.0015 20.3348Z" fill="#757575"/>
</svg>
