<svg width="20" height="20" viewBox="0 0 20 20" fill="none" xmlns="http://www.w3.org/2000/svg">
<path d="M9.12533 12.4173C8.04199 12.209 7.1531 11.6882 6.45866 10.855C5.76421 10.0217 5.41699 9.05642 5.41699 7.95898C5.41699 6.68121 5.86144 5.59093 6.75033 4.68815C7.63921 3.78537 8.72255 3.33398 10.0003 3.33398C11.2781 3.33398 12.3614 3.78537 13.2503 4.68815C14.1392 5.59093 14.5837 6.68121 14.5837 7.95898C14.5837 9.05642 14.2364 10.0217 13.542 10.855C12.8475 11.6882 11.9587 12.209 10.8753 12.4173V14.084H11.694C11.926 14.084 12.1253 14.1658 12.292 14.3296C12.4587 14.4933 12.542 14.6961 12.542 14.9382C12.542 15.1802 12.4601 15.383 12.2964 15.5467C12.1327 15.7105 11.9298 15.7923 11.6878 15.7923H10.8753V16.6257C10.8753 16.8618 10.7885 17.0666 10.6149 17.2402C10.4413 17.4138 10.2364 17.5007 10.0003 17.5007C9.76421 17.5007 9.55935 17.4138 9.38574 17.2402C9.21213 17.0666 9.12533 16.8618 9.12533 16.6257V15.7923H8.30662C8.07464 15.7923 7.87533 15.7105 7.70866 15.5467C7.54199 15.383 7.45866 15.1802 7.45866 14.9382C7.45866 14.6961 7.54052 14.4933 7.70424 14.3296C7.86795 14.1658 8.07081 14.084 8.31283 14.084H9.12533V12.4173ZM10.0003 10.7507C10.792 10.7507 11.4621 10.4798 12.0107 9.93815C12.5594 9.39648 12.8337 8.72287 12.8337 7.91732C12.8337 7.13478 12.5594 6.46692 12.0107 5.91375C11.4621 5.36057 10.792 5.08398 10.0003 5.08398C9.20866 5.08398 8.53852 5.36057 7.98991 5.91375C7.4413 6.46692 7.16699 7.13478 7.16699 7.91732C7.16699 8.72287 7.4413 9.39648 7.98991 9.93815C8.53852 10.4798 9.20866 10.7507 10.0003 10.7507Z" fill="#616161"/>
</svg>
