<svg width="20" height="16" viewBox="0 0 20 16" fill="none" xmlns="http://www.w3.org/2000/svg">
<path d="M2 16C1.45 16 0.979167 15.8042 0.5875 15.4125C0.195833 15.0208 0 14.55 0 14V2C0 1.45 0.195833 0.979167 0.5875 0.5875C0.979167 0.195833 1.45 0 2 0H18C18.55 0 19.0208 0.195833 19.4125 0.5875C19.8042 0.979167 20 1.45 20 2V14C20 14.55 19.8042 15.0208 19.4125 15.4125C19.0208 15.8042 18.55 16 18 16H2ZM2 14H18V2H2V14ZM9.25 11L7.4 8.525C7.3 8.39167 7.16667 8.325 7 8.325C6.83333 8.325 6.7 8.39167 6.6 8.525L4.6 11.2C4.46667 11.3667 4.45 11.5417 4.55 11.725C4.65 11.9083 4.8 12 5 12H15C15.2 12 15.35 11.9083 15.45 11.725C15.55 11.5417 15.5333 11.3667 15.4 11.2L12.65 7.525C12.55 7.39167 12.4167 7.325 12.25 7.325C12.0833 7.325 11.95 7.39167 11.85 7.525L9.25 11Z" fill="#3042EE"/>
</svg>
