<svg width="20" height="20" viewBox="0 0 20 20" fill="none" xmlns="http://www.w3.org/2000/svg">
<path d="M1.70801 16.6667C1.4719 16.6667 1.26704 16.5799 1.09342 16.4063C0.919813 16.2326 0.833008 16.0278 0.833008 15.7917V14.2708C0.833008 13.7847 0.958008 13.3472 1.20801 12.9583C1.45801 12.5694 1.7844 12.2778 2.18717 12.0833C3.02051 11.6667 3.89551 11.3542 4.81217 11.1458C5.72884 10.9375 6.64551 10.8333 7.56217 10.8333C8.47884 10.8333 9.39551 10.941 10.3122 11.1563C11.2288 11.3715 12.1038 11.6806 12.9372 12.0833C13.34 12.2778 13.6663 12.5694 13.9163 12.9583C14.1663 13.3472 14.2913 13.7847 14.2913 14.2708V15.7917C14.2913 16.0278 14.2045 16.2326 14.0309 16.4063C13.8573 16.5799 13.6525 16.6667 13.4163 16.6667H1.70801ZM15.6247 16.6667C15.7358 16.5556 15.8122 16.4236 15.8538 16.2708C15.8955 16.1181 15.9163 15.9583 15.9163 15.7917V14.0833C15.9163 13.5278 15.7601 12.9618 15.4476 12.3854C15.1351 11.809 14.6663 11.3194 14.0413 10.9167C14.7775 11 15.4511 11.1424 16.0622 11.3438C16.6733 11.5451 17.2566 11.7917 17.8122 12.0833C18.3261 12.3611 18.6802 12.6736 18.8747 13.0208C19.0691 13.3681 19.1663 13.7847 19.1663 14.2708V15.7917C19.1663 16.0278 19.0795 16.2326 18.9059 16.4063C18.7323 16.5799 18.5275 16.6667 18.2913 16.6667H15.6247ZM7.56217 9.97917C6.61773 9.97917 5.82606 9.65972 5.18717 9.02083C4.54829 8.38194 4.22884 7.59028 4.22884 6.64583C4.22884 5.70139 4.54829 4.90972 5.18717 4.27083C5.82606 3.63194 6.61773 3.3125 7.56217 3.3125C8.50662 3.3125 9.29829 3.63194 9.93717 4.27083C10.5761 4.90972 10.8955 5.70139 10.8955 6.64583C10.8955 7.59028 10.5761 8.38194 9.93717 9.02083C9.29829 9.65972 8.50662 9.97917 7.56217 9.97917ZM15.8955 6.64583C15.8955 7.59028 15.5761 8.38194 14.9372 9.02083C14.2983 9.65972 13.5066 9.97917 12.5622 9.97917C12.4094 9.97917 12.1976 9.95833 11.9268 9.91667C11.6559 9.875 11.4441 9.83333 11.2913 9.79167C11.6525 9.34722 11.9337 8.85764 12.1351 8.32292C12.3365 7.78819 12.4372 7.22917 12.4372 6.64583C12.4372 6.07639 12.3365 5.52431 12.1351 4.98958C11.9337 4.45486 11.6525 3.96528 11.2913 3.52083C11.4997 3.45139 11.715 3.39931 11.9372 3.36458C12.1594 3.32986 12.3677 3.3125 12.5622 3.3125C13.5066 3.3125 14.2983 3.63194 14.9372 4.27083C15.5761 4.90972 15.8955 5.70139 15.8955 6.64583Z" fill="#616161"/>
</svg>
