<svg width="492" height="319" viewBox="0 0 492 319" fill="none" xmlns="http://www.w3.org/2000/svg">
<path fill-rule="evenodd" clip-rule="evenodd" d="M207.188 101.379H207.155H207.12C201.253 101.379 195.383 101.377 189.513 101.374C174.833 101.367 160.146 101.36 145.46 101.397C137.904 101.414 134.083 105.234 134.083 112.67C134.071 121.91 134.078 131.152 134.085 140.394C134.097 157.852 134.11 175.313 133.998 192.766C133.946 199.842 137.116 203.148 144.055 204.022C145.343 204.179 146.659 204.178 147.965 204.177C148.084 204.176 148.202 204.176 148.321 204.176C153.083 204.19 157.844 204.184 162.606 204.178C169.409 204.169 176.212 204.16 183.015 204.211C187.635 204.244 189.829 203.815 190.859 204.716C191.926 205.649 191.744 208.009 191.718 213.788C191.701 216.169 190.519 217.112 188.257 217.077C186.258 217.043 184.26 217.054 182.261 217.066C181.261 217.072 180.262 217.077 179.263 217.077C174.403 217.077 172.113 216.913 171.041 217.976C169.982 219.027 170.114 221.277 170.131 226.072C170.148 231.657 170.302 231.812 175.939 231.812L175.956 231.812C195.379 231.846 214.785 231.88 234.19 231.812C239.544 231.795 242.003 232.198 243.115 231.159C244.248 230.1 243.982 227.543 243.956 221.515C243.956 217.951 243.202 217.249 239.69 217.146C237.242 217.072 234.795 217.086 232.347 217.1C231.368 217.106 230.389 217.112 229.41 217.112C224.716 217.112 222.38 214.776 222.403 210.104C222.437 204.45 222.626 204.228 228.125 204.228C240.975 204.211 253.825 204.211 266.674 204.228C268.97 204.228 271.231 204.091 273.459 203.474C277.502 202.36 279.729 199.653 280.398 195.644C280.651 194.184 280.645 192.685 280.639 191.192C280.638 190.968 280.637 190.745 280.637 190.521V115.137C280.637 113.561 280.62 111.985 280.483 110.426C280.175 107.016 278.273 104.635 275.395 102.956C273.082 101.619 270.58 101.362 267.959 101.362C247.702 101.379 227.445 101.379 207.188 101.379ZM259.256 116.66H207.035C201.233 116.66 195.431 116.658 189.628 116.656C178.024 116.653 166.419 116.649 154.814 116.66C149.726 116.677 149.538 116.866 149.538 121.988V183.649C149.538 189.355 149.692 189.509 155.243 189.509H259.684C265.064 189.509 265.235 189.338 265.235 183.958V122.725C265.235 116.831 265.064 116.66 259.256 116.66Z" fill="#2F43EE"/>
<path fill-rule="evenodd" clip-rule="evenodd" d="M289.972 148.525C289.974 154.523 289.976 160.521 289.976 166.517L289.958 166.499V188.772C289.965 192.845 289.964 196.916 289.963 200.986C289.962 207.77 289.961 214.553 289.993 221.342C290.027 227.989 293.608 231.553 300.29 231.775C301.15 231.801 302.001 231.798 302.857 231.795C303.143 231.794 303.429 231.793 303.716 231.793H344.407C355.646 231.793 358.593 228.846 358.593 217.607V116.06C358.593 115.775 358.594 115.489 358.596 115.204V115.203C358.602 114.204 358.608 113.205 358.541 112.206C358.113 105.404 354.138 101.463 347.251 101.412C331.831 101.326 316.412 101.326 300.992 101.412C293.693 101.446 289.976 105.267 289.976 112.531C289.964 124.525 289.968 136.526 289.972 148.525ZM330.715 134.796L330.711 134.796C328.618 134.8 326.525 134.804 324.43 134.804V134.787H308.154C307.492 134.788 306.887 134.785 306.333 134.782H306.332C303.382 134.766 301.88 134.757 301.121 135.504C300.333 136.279 300.344 137.866 300.367 141.099C300.37 141.599 300.374 142.138 300.375 142.719C300.393 147.431 300.632 147.654 305.601 147.654C316.874 147.671 328.165 147.688 339.438 147.654C340.32 147.652 341.108 147.661 341.811 147.669H341.812C344.603 147.701 346.075 147.718 346.845 146.991C347.704 146.18 347.688 144.442 347.656 140.767C347.652 140.301 347.648 139.805 347.645 139.276C347.628 135.198 347.268 134.838 343.276 134.804C339.085 134.781 334.902 134.789 330.716 134.796H330.715H330.715ZM323.813 124.646C321.976 124.646 320.142 124.648 318.308 124.651C313.724 124.658 309.144 124.665 304.555 124.629C300.769 124.594 300.392 124.234 300.392 120.431C300.391 119.621 300.384 118.886 300.378 118.219C300.347 114.738 300.333 113.095 301.145 112.331C301.871 111.649 303.257 111.669 305.882 111.707C306.671 111.718 307.571 111.731 308.599 111.728C320.009 111.676 331.42 111.693 342.83 111.728C347.439 111.728 347.644 111.95 347.662 116.559C347.662 117.153 347.664 117.704 347.666 118.214C347.682 121.599 347.69 123.219 346.884 123.988C346.144 124.694 344.717 124.681 341.979 124.656C341.288 124.649 340.512 124.642 339.643 124.646C336.126 124.669 332.608 124.661 329.09 124.653H329.09C327.331 124.649 325.572 124.646 323.813 124.646ZM324.088 216.955C328.217 216.938 330.547 214.677 330.547 210.685V210.702C330.547 206.796 328.114 204.38 324.122 204.328C320.233 204.26 317.56 206.796 317.543 210.582C317.509 214.18 320.387 216.955 324.088 216.955Z" fill="#2F43EE"/>
<path d="M251.318 309.577C252.431 312.062 251.592 313.792 249.365 315.248C240.199 321.176 225.876 315.797 222.586 305.465C220.085 297.584 221.233 290.183 224.591 283.056C229.73 272.142 242.289 270.138 251.883 276.34C252.997 277.059 253.733 278.104 254.025 279.424C254.282 280.589 254.247 281.737 253.168 282.507C252.174 283.227 251.232 282.747 250.41 282.148C248.2 280.503 245.801 279.338 243.043 278.995C238.023 278.344 234.065 279.989 231.427 284.392C227.914 290.252 227.657 296.642 229.182 302.998C231.101 310.948 238.108 312.918 246.315 310.605C247.908 310.16 249.313 308.909 251.318 309.577Z" fill="#2F43EE"/>
<path d="M293.311 286.208C296.378 283.673 299.29 281.84 303.197 282.028C308.182 282.268 311.198 284.204 312.894 288.898C313.271 289.978 313.613 291.074 313.785 292.205C314.59 297.567 315.429 302.913 316.046 308.293C316.269 310.143 316.8 312.507 313.922 313.124C311.592 313.621 310.324 312.559 309.724 308.978C308.885 303.924 308.765 298.784 307.548 293.764C306.606 289.875 304.636 287.596 301.586 287.665C298.194 287.75 294.682 290.988 294.493 294.484C294.322 297.756 294.425 301.028 295.144 304.283C295.761 307.059 296.344 309.869 296.189 312.764C296.087 314.734 295.196 316.071 293.174 316.294C291.101 316.516 290.587 315.026 290.261 313.347C288.737 305.363 287.777 297.293 286.938 289.224C286.766 287.596 286.252 285.626 288.068 284.529C290.056 283.33 291.546 284.855 293.294 286.225L293.311 286.208Z" fill="#2F43EE"/>
<path d="M326.258 290.714C325.984 293.386 327.011 296.196 328.365 298.903C330.712 303.615 335.458 304.797 339.81 301.764C340.615 301.199 341.335 300.479 342.054 299.777C343.048 298.818 344.093 298.081 345.395 299.229C346.611 300.308 346.971 301.61 346.029 303.032C342.5 308.343 333.025 311.907 326.378 306.75C321.478 302.947 317.057 290.234 321.323 282.798C323.842 278.412 329.941 274.969 334.978 275.688C336.983 275.98 338.919 276.579 340.307 278.155C341.06 279.012 341.746 280.074 341.129 281.274C340.461 282.576 339.244 282.267 338.114 282.01C337.702 281.925 337.308 281.736 336.88 281.65C329.821 280.194 326.155 283.158 326.258 290.714Z" fill="#2F43EE"/>
<path d="M206.156 268.922C205.728 271.252 204.939 273.993 204.374 276.786C202.318 287.117 199.971 297.397 197.795 307.694C197.47 309.184 196.956 310.469 195.396 310.932C194.18 311.291 193.203 310.623 192.278 309.904C190.959 308.893 191.507 307.608 191.764 306.374C193.94 295.906 196.116 285.421 198.326 274.953C198.892 272.314 199.08 269.573 200.211 267.055C200.965 265.376 202.318 264.81 204.083 265.221C205.779 265.615 206.31 266.832 206.156 268.922Z" fill="#2F43EE"/>
<path d="M379.626 262.84C381.322 259.978 382.573 257.614 385.349 256.501C387.353 255.695 388.998 255.678 390.111 257.7C391.259 259.824 390.3 261.006 388.278 262.034C383.892 264.262 382.453 268.322 384.338 273.188C385.88 277.163 387.713 281.035 389.426 284.958C389.717 285.609 390.026 286.26 390.266 286.928C390.934 288.864 390.266 290.304 388.45 291.126C386.582 291.965 385.468 290.903 384.715 289.344C383.224 286.26 381.751 283.176 380.346 280.058C378.427 275.775 376.611 271.423 374.692 267.14C373.938 265.444 372.705 263.833 374.555 262.12C376.302 260.492 377.947 261.315 379.643 262.823L379.626 262.84Z" fill="#2F43EE"/>
<path d="M155.923 268.202C157.516 267.979 158.904 267.688 160.309 267.585C162.262 267.448 163.975 268.185 165.278 269.624C166.494 270.977 166.22 272.554 165.346 273.976C164.558 275.295 163.41 274.747 162.331 274.37C157.139 272.554 152.891 274.421 150.817 279.492C149.138 283.57 147.511 287.665 145.969 291.777C145.129 293.987 144.05 295.837 141.343 294.741C138.773 293.713 139.424 291.52 140.144 289.635C142.885 282.319 145.695 275.038 148.539 267.773C149.087 266.351 149.567 264.604 151.434 264.415C153.473 264.21 154.381 265.803 155.186 267.362C155.306 267.602 155.563 267.773 155.974 268.202H155.923Z" fill="#2F43EE"/>
<path fill-rule="evenodd" clip-rule="evenodd" d="M107.061 278.171C111.242 282.129 116.073 285.144 122.669 284.853V284.887C127.672 285.504 132.109 283.26 135.587 279.456C139.442 275.225 142.423 270.376 143.88 264.705C146.415 254.888 143.451 248 134.611 243.323C125.496 238.492 117.204 239.862 110.762 247.264C106.838 251.77 104.371 257.098 102.966 262.786C101.562 268.474 102.675 274.008 107.061 278.171ZM117.186 250.281C112.594 254.838 110.23 260.543 109.408 266.917V266.899C108.911 272.896 113.005 276.511 117.032 278.121C121.452 279.903 126.969 278.91 130.087 275.517C133.496 271.799 136.272 267.533 137.403 262.633C139.013 255.609 137.779 251.84 132.023 248.362C127.02 245.346 121.555 245.929 117.186 250.281Z" fill="#2F43EE"/>
<path fill-rule="evenodd" clip-rule="evenodd" d="M366.708 294.5C360.369 297.07 357.097 295.665 354.184 288.88L354.218 288.932C356.12 287.715 358.005 287.081 359.889 286.464C363.401 285.299 366.879 284.066 370.357 282.815C372.43 282.044 373.715 280.845 373.047 278.292C371.351 271.867 365.286 267.139 359.272 267.704C351.854 268.389 346.457 273.855 345.994 280.982C345.686 285.711 347.091 289.925 349.267 294.037C351.7 298.663 355.486 301.079 360.575 301.113C366.52 301.147 371.677 298.903 375.84 294.603C376.885 293.506 376.44 292.187 375.583 291.09C374.623 289.857 373.561 290.319 372.602 291.09C370.803 292.529 368.833 293.643 366.708 294.5ZM354.899 282.863C358.67 281.785 362.463 280.701 366.194 278.755V278.738C364.018 273.633 360.849 271.919 357.114 273.427C352.454 275.312 351.135 278.31 352.865 283.45C353.542 283.251 354.22 283.057 354.899 282.863Z" fill="#2F43EE"/>
<path fill-rule="evenodd" clip-rule="evenodd" d="M280.89 307.585C280.881 306.695 280.873 305.805 280.873 304.917L280.856 304.899H280.719C280.719 303.926 280.735 302.95 280.752 301.972C280.789 299.817 280.826 297.656 280.684 295.511C280.29 289.737 277.326 286.053 272.324 285.025C267.852 284.117 263.552 284.957 259.474 286.944C258.72 287.304 257.966 287.835 257.469 288.486C256.647 289.583 256.51 290.953 257.315 292.084C258.146 293.247 259.218 292.735 260.266 292.234C260.299 292.218 260.332 292.203 260.365 292.187C261.77 291.519 263.226 290.885 264.699 290.388C266.79 289.685 268.914 289.6 270.953 290.559C273.146 291.587 274.054 293.489 273.9 295.802C273.753 298.065 272.168 298.21 270.563 298.357C270.298 298.382 270.031 298.406 269.771 298.44C269.532 298.471 269.292 298.502 269.053 298.533C267.179 298.773 265.289 299.015 263.466 299.485C258.72 300.719 255.105 305.379 255.619 309.388C256.339 315.128 260.211 318.314 266.224 318.246C268.297 318.229 270.148 317.629 271.929 316.687C273.386 315.933 274.654 315.744 276.333 316.498C279.502 317.92 280.719 316.995 280.856 313.466C280.926 311.51 280.908 309.546 280.89 307.585ZM262.232 309.422C262.746 311.615 264.734 313.019 268.28 312.968V312.985C270.285 312.917 272.443 311.392 273.882 308.976C275.818 305.721 274.568 303.562 270.799 303.476C270.701 303.474 270.603 303.471 270.506 303.468C268.784 303.417 267.038 303.365 265.385 304.11C262.832 305.258 261.701 307.126 262.232 309.422Z" fill="#2F43EE"/>
<path fill-rule="evenodd" clip-rule="evenodd" d="M169.646 277.865H172.644H172.661C177.715 277.797 178.76 278.122 180.628 279.973C182.375 281.703 182.667 283.776 181.639 285.849C180.551 288.058 178.58 287.374 176.876 286.782C176.836 286.768 176.796 286.754 176.756 286.74C173.998 285.763 171.188 285.472 168.327 285.849C164.266 286.38 160.685 289.55 160.103 292.942C159.246 297.842 160.685 300.875 164.831 303.41C167.556 305.072 170.417 305.518 173.466 304.918C175.094 304.61 176.242 304.729 177.561 306.169C179.788 308.601 181.536 308.173 182.53 305.106C182.743 304.448 182.958 303.791 183.173 303.133C185.077 297.301 186.982 291.468 188.029 285.387C188.954 279.99 187.19 276.58 182.204 274.37C179.583 273.205 176.842 272.451 173.912 272.588C173.545 272.603 173.177 272.606 172.81 272.609C171.463 272.619 170.123 272.63 168.858 273.222C167.59 273.822 166.75 274.747 167.024 276.255C167.281 277.728 168.464 277.848 169.646 277.865ZM166.168 295.152C165.946 297.859 168.447 300.052 171.891 300.138L171.873 300.121C173.467 300.155 174.975 299.71 176.397 299.059C178.333 298.185 178.949 296.489 178.881 294.501C178.812 292.291 177.27 291.743 175.454 291.486C175.026 291.421 174.602 291.334 174.179 291.247C173.487 291.105 172.798 290.963 172.096 290.921C168.858 290.732 166.391 292.548 166.168 295.152Z" fill="#2F43EE"/>
<path d="M3.83944 118.464C1.40658 119.492 2.91427 122.113 1.37232 123.33C-0.666488 120.914 -0.392364 116.202 1.92057 113.495C4.04503 111.011 4.93594 111.028 9.21914 113.598C10.3499 112.57 9.81879 111.217 9.83592 110.017C9.99012 102.068 12.3373 100.44 19.7044 103.507C20.0128 100.954 19.139 98.4527 19.9614 95.9514C21.589 90.9828 25.2383 89.9891 28.8876 93.7584C31.0806 96.037 32.6054 98.8125 34.4386 101.348C35.5009 102.822 36.3404 104.518 38.0023 105.426C38.3278 105.289 38.7732 105.237 38.8075 105.083C40.0068 100.492 42.8337 98.2129 47.6994 98.1615C50.355 98.1272 51.6742 96.037 52.2225 93.6898C53.0449 90.1605 49.5498 84.0612 45.832 82.6563C46.9627 78.0304 44.9582 74.2955 42.2341 70.7319C38.9274 73.0277 38.2421 74.9637 39.7669 79.1955C40.6921 81.7483 40.2981 83.5301 37.9851 85.1234C34.8841 83.3759 34.9012 80.429 35.0211 77.6706C35.2439 72.6336 38.0537 68.8644 41.7886 65.7462C44.5299 63.4504 45.712 63.6903 47.4938 66.757C49.0015 69.327 49.8924 72.2395 51.9484 74.8095C55.255 73.9186 57.5508 71.6228 59.898 69.3955C60.9431 68.4018 60.4805 67.3567 59.9151 66.2945C58.5788 63.7588 57.5851 61.1032 56.7284 58.3791C55.0323 52.9309 57.0368 46.5575 61.4399 43.4222C62.742 42.497 64.2155 41.3662 65.4662 43.2508C66.7169 45.1354 65.1749 46.0092 63.7529 46.8487C60.2064 48.9389 59.7095 49.7784 60.9774 53.3078C63.7357 60.9662 67.5735 68.1448 71.1371 75.4434C72.0966 77.4308 73.5186 78.2532 75.6088 76.9168C76.2256 76.5399 76.8766 76.2486 78.1102 76.9853C77.3221 81.2343 73.4329 83.0846 70.9658 86.3398C67.6249 83.4958 66.6655 79.8294 65.0207 76.5913C62.8962 72.3937 62.3309 72.0853 58.87 74.878C54.1071 78.7329 53.576 78.5958 55.6319 84.3524C58.0477 91.137 55.512 99.0866 49.6183 101.914C45.4722 103.901 41.8743 105.426 40.1267 110.223C39.2016 112.776 36.2033 112.656 34.1131 110.274C31.6631 107.499 29.59 104.415 27.3457 101.468C26.4205 100.252 25.838 98.6241 23.9362 98.6412C22.4114 99.4293 22.5485 100.868 22.8569 102.051C24.1932 107.105 24.6044 112.433 28.031 116.836C30.4124 119.92 30.0355 120.725 26.5233 123.518C21.7432 119.355 19.4303 113.084 15.0443 108.852C13.5023 109.366 13.2968 110.24 13.3824 111.097C13.9135 116.357 14.3761 121.633 17.6314 126.122C18.745 127.647 19.7044 129.24 19.2076 131.262C18.9163 132.461 18.1796 133.318 16.9974 133.661C15.7639 134.02 15.2156 133.061 14.6331 132.239C12.1831 128.726 9.75026 125.214 7.28313 121.702C6.3237 120.331 5.51845 118.755 3.83944 118.481V118.464Z" fill="#2F43EE"/>
<path d="M184.436 34.3264C186.715 34.4977 187.075 31.8593 189.405 31.2425C190.158 33.8809 188.565 35.4743 187.075 36.9991C185.156 38.9523 182.843 39.9974 180.101 38.9694C178.011 38.1813 177.771 36.2624 177.754 34.3435C177.72 31.2082 177.72 28.0729 177.669 24.9376C177.634 23.5499 177.908 22.0764 176.863 20.8086C174.825 20.4146 174.036 21.8537 173.248 23.1729C170.798 27.2677 169.154 31.6194 169.068 36.468C169.051 37.5988 169.068 38.7638 168.862 39.8774C168.468 41.8648 167.063 42.7729 165.127 42.6015C163.191 42.4302 163.089 40.8711 163.089 39.4148C163.089 31.8593 162.832 24.2866 163.174 16.7481C163.568 8.30166 168.28 2.61357 175.938 0.4377C177.309 0.043645 179.022 -0.590268 179.622 1.20868C180.273 3.17895 178.885 4.36111 177.052 4.92649C176.915 4.96076 176.778 4.96076 176.624 4.99503C170.01 6.31425 169.685 6.62264 168.657 13.2188C168.177 16.3198 168.417 19.4209 168.468 22.7446C170.113 22.1792 170.559 20.9457 171.261 19.9348C172.066 18.7698 172.837 17.5362 173.814 16.5254C175.51 14.7779 177.651 14.0069 180.05 14.6922C182.5 15.3946 183.203 17.5534 183.374 19.7121C183.631 23.1215 183.494 26.5481 183.631 29.9747C183.682 31.4652 183.134 33.11 184.436 34.4121V34.3264Z" fill="#2F43EE"/>
<path d="M276.919 33.2117C279.334 34.0512 280.636 30.9159 282.829 32.2522C281.424 36.4326 275.068 39.191 271.779 37.1008C270.031 36.0043 270.1 34.2739 270.408 32.5264C270.905 29.6994 271.899 27.0438 272.875 24.3711C274.537 19.8309 275.736 15.1023 278.049 10.8019C280.893 5.50791 284.954 1.7387 291.173 0.933453C292.424 0.762125 293.76 0.74499 294.994 0.98485C296.279 1.22471 298.352 1.07051 298.146 3.05792C297.923 5.21665 296.039 5.37085 294.188 5.19952C287.13 4.58274 285.673 5.49078 283.275 12.1726C281.15 18.0834 279.146 24.0113 277.073 29.9393C276.696 31.0187 276.267 32.0638 276.936 33.2459L276.919 33.2117Z" fill="#2F43EE"/>
<path d="M135.386 47.4161C138.007 46.7308 137.784 43.8182 139.891 43.1843C141.331 43.8525 141.039 45.0861 140.645 46.0969C139.977 47.8273 138.898 49.335 137.613 50.7056C136.174 52.2476 134.563 53.3955 132.353 52.7273C130.177 52.0591 129.372 50.1745 129.012 48.1528C127.864 41.7109 126.511 35.3032 125.825 28.8099C125.14 22.248 127.23 16.4229 132.49 12.0883C134.58 10.375 136.962 9.15857 140.046 9.79249C140.337 12.5509 138.983 13.6988 136.688 14.4355C131.582 16.0802 130.28 17.8278 130.862 23.2246C131.462 28.7242 132.387 34.2239 133.569 39.6207C134.135 42.1564 133.295 45.0689 135.368 47.399L135.386 47.4161Z" fill="#2F43EE"/>
<path d="M430.412 85.8454C434.061 85.5542 436.973 87.3703 439.818 88.9979C441.068 89.7175 440.503 90.9853 439.475 91.8248C437.47 93.4353 435.517 95.08 433.461 96.622C428.664 100.203 424.21 104.263 418.95 107.176C413.039 110.465 407.025 110.739 401.183 106.867C400.601 106.473 400.035 106.028 399.521 105.531C398.699 104.726 397.688 103.818 398.51 102.601C399.367 101.334 400.772 101.539 401.988 102.07C402.605 102.344 403.085 102.944 403.582 103.441C406.94 106.713 409.201 107.33 413.022 104.794C419.19 100.7 424.843 95.9024 430.549 91.1738C432.776 89.3234 430.086 87.9185 430.429 85.8283L430.412 85.8454Z" fill="#2F43EE"/>
<path d="M255.11 14.8799C254.39 13.4408 252.78 13.7492 252.283 12.5841C252.06 11.9331 252.351 11.3163 252.848 11.1107C255.229 10.0999 257.405 9.1233 258.039 6.07366C258.331 4.66877 260.181 4.24045 261.671 4.53171C263.35 4.85723 263.522 6.22785 263.162 7.54708C262.408 10.2712 263.762 11.1621 266.143 11.4534C267.085 11.5733 268.182 11.539 268.919 12.7897C268.473 14.5201 267.24 15.1369 265.475 14.6743C262.34 13.852 261.003 15.4967 260.335 18.2208C259.564 21.4075 258.605 24.56 257.936 27.7638C257.2 31.3446 257.868 31.8928 261.329 30.8134C261.997 30.6078 262.631 30.1967 263.385 30.4022C263.522 30.4365 263.625 30.5393 264.002 30.7792C263.779 33.8802 261.089 34.5827 258.879 35.3879C256.737 36.1589 254.356 36.3987 252.437 34.5827C250.775 33.0064 250.861 31.0362 251.409 29.0145C252.66 24.3372 253.876 19.66 255.127 14.9142L255.11 14.8799Z" fill="#2F43EE"/>
<path d="M491.816 137.945C490.942 139.796 488.852 139.881 487.79 141.303C487.224 143.548 489.983 144.507 489.966 146.803C488.287 148.516 486.916 147.437 486.008 145.929C484.226 142.999 482.016 143.256 479.463 144.644C475.78 146.649 471.702 147.968 468.447 150.486C468.875 153.262 471.805 152.936 472.661 154.77C468.789 156.894 462.724 153.982 462.33 149.835C462.142 147.899 463.118 146.597 464.626 145.569C467.35 143.719 470.383 142.485 473.381 141.183C476.585 139.796 480.32 138.905 479.138 133.285C482.359 135.667 485.066 135.667 488.064 134.93C490.154 134.416 491.353 136.044 491.833 137.945H491.816Z" fill="#2F43EE"/>
<path d="M157.366 39.1242C158.36 42.6364 155.43 43.8871 153.734 45.6861C152.329 47.1766 150.496 48.0846 148.32 47.3993C146.863 46.9367 145.955 45.8231 145.476 44.4182C144.79 42.3966 144.276 40.3235 144.242 38.1648C144.208 36.3144 144.139 34.4641 144.002 32.6137C143.78 29.7011 143.42 26.8571 139.77 26.6686C139.205 25.4008 139.753 24.6641 140.456 24.2015C142.083 23.1564 142.597 21.683 142.529 19.8326C142.426 17.04 144.019 15.7722 146.315 15.498C147.309 15.7893 147.549 16.3204 147.669 16.8687C148.274 19.45 149.85 20.6436 152.397 20.4494C153.391 20.3638 154.573 20.1068 154.95 21.3232C155.413 22.7624 154.282 23.5333 153.134 23.6361C149.536 23.9617 149.279 26.2917 149.416 29.1186C149.553 32.2539 149.519 35.3721 150.221 38.456C151.078 42.1396 151.883 42.4479 154.95 40.135C155.515 39.7067 155.978 39.1413 157.332 39.1242H157.366Z" fill="#2F43EE"/>
<path d="M389.294 56.8743C387.735 55.3838 385.216 57.1998 383.811 55.2467C386.296 53.3963 392.549 53.0023 394.468 54.6128C395.616 55.5722 396.216 56.84 395.89 58.3991C395.667 59.4785 394.725 60.4037 395.188 61.6886C396.507 62.6138 397.586 61.5002 398.751 61.1918C401.321 60.4893 403.823 60.4037 406.187 61.8257C407.044 62.3225 408.02 62.8194 407.866 64.0529C407.695 65.4064 406.598 65.8862 405.484 66.1774C404.833 66.3488 404.011 66.4344 403.411 66.2117C395.616 63.2991 390.116 67.5138 384.737 72.1396C383.88 72.8764 383.143 73.7844 382.218 74.4354C380.539 75.6176 378.843 75.0865 377.575 73.7844C376.136 72.2938 377.575 71.2145 378.517 70.1865C381.396 67.0341 384.325 63.9159 387.17 60.7292C388.163 59.6156 389.722 58.7589 389.311 56.8743H389.294Z" fill="#2F43EE"/>
<path d="M470.143 130.922C469.594 130.1 469.612 129.569 469.817 129.003C471.154 125.097 469.183 122.236 465.02 122.561C460.411 122.921 456.591 125.131 453.695 128.746C452.136 130.699 452.873 132.464 454.535 134.006C456.402 135.736 458.835 136.61 460.925 137.707C460.685 139.54 459.589 139.557 458.629 139.351C455.1 138.546 451.828 137.056 449.224 134.537C446.191 131.642 446.105 127.256 448.915 124.12C454.775 117.576 465.311 116.188 472.867 122.441C472.97 122.527 473.072 122.63 473.175 122.733C474.614 124.326 476.191 125.936 475.608 128.335C475.248 129.843 473.621 130.511 470.143 130.905V130.922Z" fill="#2F43EE"/>
<path d="M319.203 47.825C317.165 47.9278 315.006 47.311 313.053 45.9918C311.905 45.2208 310.98 44.2271 311.836 42.8222C312.624 41.5201 314.012 41.6058 315.246 42.1712C316.531 42.7537 317.713 43.5932 319.032 44.1072C320.266 44.604 321.585 44.5698 322.596 43.5247C323.675 42.411 323.264 41.1946 322.699 39.9782C321.979 38.4362 321.208 36.8943 320.626 35.3009C319.169 31.309 320.231 28.088 323.572 26.0835C327.016 24.0104 332.978 24.4558 335.188 27.0086C336.747 28.7904 335.6 30.2639 334.366 31.446C332.773 32.988 331.882 31.7887 331.214 30.3153C330.391 28.4649 328.952 27.6254 327.102 28.4992C325.303 29.3558 325.782 31.189 326.091 32.6796C326.348 33.9132 326.965 35.0782 327.462 36.2432C330.494 43.3705 327.393 47.8764 319.186 47.825H319.203Z" fill="#2F43EE"/>
<path d="M440.331 83.7883C443.603 81.8694 444.392 81.8865 448.658 83.7026C446.687 87.0092 445.128 87.0607 440.331 83.7883Z" fill="#2F43EE"/>
<path fill-rule="evenodd" clip-rule="evenodd" d="M222.076 10.2183C223.516 5.60954 226.428 4.23892 231.242 5.81514H231.26C231.619 6.50045 231.431 7.18576 231.105 7.83681C230.429 9.16743 229.774 10.5087 229.118 11.8494C226.771 16.6546 224.426 21.4542 221.117 25.7406C216.354 31.9255 215.823 32.2511 208.387 30.2637C206.88 29.8525 205.903 30.3665 205.201 31.6343C204.515 32.9192 205.218 33.7759 206.143 34.5811C207.154 35.4577 208.381 35.6211 209.644 35.7893L209.707 35.7976C216.148 36.6885 220.312 33.3304 223.379 28.242C225.528 24.6753 228.884 24.7835 232.095 24.8869C232.494 24.8998 232.89 24.9125 233.281 24.9182C235.807 24.9548 236.004 26.7381 236.199 28.5042C236.278 29.218 236.356 29.9289 236.588 30.5206C236.767 30.979 236.842 31.4721 236.918 31.9662C236.972 32.3218 237.026 32.6779 237.119 33.022C237.359 33.8958 237.924 34.7353 238.867 34.6325C241.402 34.3413 243.938 33.9129 246.439 33.4332C247.159 33.2962 247.621 32.628 247.69 31.857C247.759 31.0518 247.279 30.3322 246.542 30.2979C242.985 30.1569 242.653 27.6218 242.333 25.1841C242.304 24.9569 242.274 24.7305 242.242 24.507C241.533 19.4995 240.897 14.4739 240.261 9.44993C240.02 7.54672 239.78 5.64375 239.535 3.74207C239.089 0.315507 238.901 0.144177 235.474 0.829489C233.641 1.20641 231.808 1.34347 229.958 1.4634C226.445 1.68613 223.173 2.73123 220.517 5.0613C217.639 7.59695 215.891 10.6637 216.628 14.7927C220.415 15.1354 221.271 12.7711 222.076 10.2183ZM229.129 17.4073C228.738 18.2932 228.354 19.1662 227.918 20.0015H227.935C228.418 21.3937 229.428 21.382 230.386 21.3709C230.548 21.3691 230.708 21.3672 230.864 21.3722C234.702 21.5092 235.559 20.6869 234.993 16.9348C234.935 16.5492 234.884 16.1599 234.833 15.7667C234.612 14.0804 234.381 12.3202 233.52 10.4586C231.271 12.5447 230.18 15.0226 229.129 17.4073Z" fill="#2F43EE"/>
<path fill-rule="evenodd" clip-rule="evenodd" d="M360.648 38.0605C362.961 35.0452 365.856 35.285 369.745 36.5357L369.728 36.5528C368.436 38.2482 367.196 39.9363 365.973 41.6025C362.622 46.1665 359.391 50.5671 355.525 54.508C354.394 55.6559 352.938 55.5017 351.499 55.0905C349.374 54.4738 347.627 55.0049 346.188 56.6668C348.106 58.9283 354.942 62.9374 357.135 63.1087C358.472 63.2115 359.894 63.0744 360.545 61.8237C361.299 60.3784 360.18 59.6965 359.144 59.0649C359.05 59.0077 358.957 58.9509 358.866 58.894C358.489 58.6542 358.283 58.3115 358.437 57.5748C358.879 57.2971 359.361 57.0349 359.856 56.7664C360.917 56.19 362.033 55.5839 362.909 54.7307C364.897 52.8119 366.644 52.4864 369.385 53.3601C373.514 54.6622 377.866 54.5766 381.858 52.3836C387.974 49.0427 388.471 42.6693 382.8 38.7116C377.712 35.148 371.972 32.9378 365.839 31.9784C362.018 31.3787 358.866 33.092 356.21 35.6619C356.137 35.7329 356.06 35.8057 355.981 35.8804C355.03 36.78 353.796 37.9482 354.84 39.277C356.09 40.836 357.923 40.3221 359.448 39.277C359.911 38.9514 360.305 38.506 360.648 38.0605ZM373.651 41.5729C371.663 43.9543 369.744 46.3701 368.288 49.4197V49.4368C370.098 50.6932 371.764 50.5655 373.344 50.4444C373.573 50.4268 373.801 50.4093 374.028 50.3963C377.026 50.2249 378.945 48.4089 380.075 45.7533C381.001 43.5603 380.127 41.0246 378.174 39.8425C376.098 38.5748 375.004 39.9158 373.916 41.2494C373.828 41.3578 373.739 41.466 373.651 41.5729Z" fill="#2F43EE"/>
<path fill-rule="evenodd" clip-rule="evenodd" d="M112.856 57.9234C113.226 56.8289 113.616 55.6762 114.45 54.5615V54.5787C117.705 59.136 119.11 59.6328 122.074 57.4912C125.209 55.2126 126.545 51.529 124.986 49.3532C124.213 49.6519 123.812 50.3651 123.413 51.0762C122.92 51.9555 122.428 52.8315 121.234 52.9168C120.448 52.3351 120.254 51.5514 120.068 50.8041C120.051 50.737 120.035 50.6702 120.018 50.6038C119.415 48.1715 118.837 45.7288 118.26 43.2871C117.788 41.2916 117.317 39.2967 116.831 37.3088C115.889 33.4368 114.827 33.1626 111.092 34.4647C100.007 38.3368 97.2141 51.4262 99.8354 59.1531C101.018 62.6139 102.988 64.7384 105.541 64.7384C108.83 64.7213 110.663 62.5625 112.051 59.9412C112.387 59.31 112.617 58.6288 112.856 57.9234ZM104.633 43.3568C102.799 47.1945 104.153 55.127 107.785 59.0676C111.349 53.4309 112.342 47.7599 111.554 41.7292C111.366 40.3585 110.166 40.0501 108.916 40.2386C106.963 40.547 105.506 41.5236 104.633 43.3568Z" fill="#2F43EE"/>
<path fill-rule="evenodd" clip-rule="evenodd" d="M308.963 39.1707C307.993 39.5778 306.968 40.0083 305.754 39.2625C306.776 35.866 308.208 32.7077 309.632 29.5697C310.498 27.6583 311.362 25.7544 312.127 23.8087C313.309 20.8105 312.932 19.9196 310.037 18.9773C304.811 17.2983 299.569 17.1098 294.789 20.1937C289.786 23.4318 285.469 27.458 284.766 33.7972C284.132 39.4681 287.764 41.9181 293.11 39.9478C293.878 39.6672 294.589 39.2511 295.301 38.8347C296.414 38.1832 297.529 37.5309 298.866 37.3951C300.186 42.5692 300.768 43.323 303.578 43.5629C306.987 43.8541 310.465 42.0038 311.767 39.1597C310.803 38.3982 309.909 38.7733 308.963 39.1707ZM304.983 22.9343C304.229 21.5636 302.721 21.3581 301.368 21.2381H301.351C299.774 21.221 298.404 21.5979 297.341 22.6259C294.549 25.3329 292.424 28.4682 291.499 32.3059C291.47 32.4306 291.438 32.5561 291.405 32.682C291.188 33.5249 290.966 34.3831 291.756 35.0986C292.818 36.0409 294.001 35.5954 294.909 34.9786C298.301 32.6486 301.608 30.1986 304.126 26.8748C304.983 25.7269 305.754 24.3563 304.983 22.9343Z" fill="#2F43EE"/>
<path fill-rule="evenodd" clip-rule="evenodd" d="M398.356 86.1358C399.573 90.0592 404.045 92.5264 411.206 92.475C415.472 92.4921 420.03 90.2819 423.662 86.033C428.116 80.8246 426.163 74.1942 419.481 72.3782C414.29 70.9561 409.287 71.8813 404.696 74.5712C400.001 77.3124 397.26 82.555 398.356 86.1358ZM406.717 88.9795C411.412 89.9903 420.064 83.3942 420.167 78.6998C420.218 76.1641 418.625 74.6051 416.209 74.862C411.84 75.3418 405.398 80.7557 404.285 84.9019C403.685 87.1463 404.49 88.4998 406.717 88.9795Z" fill="#2F43EE"/>
<path fill-rule="evenodd" clip-rule="evenodd" d="M91.3184 67.9238C88.3373 70.8364 86.9496 70.6822 84.0199 67.1014V67.0843C84.6331 65.9191 85.4841 65.1076 86.3038 64.326C86.8581 63.7974 87.3981 63.2825 87.8405 62.6812C90.2733 59.3574 92.1237 55.8794 90.5646 51.5791C89.0398 47.3473 85.2192 46.2508 81.7926 49.0606C75.5734 54.1661 74.494 66.3133 79.6853 72.4811C81.7412 74.914 84.3454 75.7021 87.3779 75.0853C91.1129 74.3315 96.6467 67.8381 96.9209 63.9147C96.9328 63.6872 96.7441 63.4431 96.5649 63.2114C96.4877 63.1115 96.4123 63.0139 96.3555 62.921C95.1904 62.8698 94.7237 63.5936 94.2691 64.2987C94.1154 64.5372 93.9631 64.7735 93.7856 64.9769C93.4548 65.355 93.1426 65.7544 92.8301 66.154C92.3497 66.7686 91.8687 67.3839 91.3184 67.9238ZM81.7074 54.7645C80.8336 57.4886 80.2511 60.2127 82.564 63.0054C85.7678 60.2984 86.8129 57.6086 85.922 55.0558C85.5794 54.0449 84.9797 53.274 83.8832 53.1369C82.7011 52.9827 82.0329 53.7365 81.7074 54.7645Z" fill="#2F43EE"/>
<path fill-rule="evenodd" clip-rule="evenodd" d="M444.75 120.574C444.751 120.573 444.752 120.573 444.753 120.573V120.59C444.752 120.585 444.751 120.579 444.75 120.574ZM430.755 113.994C432.331 118.225 439.764 121.805 444.75 120.574C444.51 119.066 443.589 118.705 442.683 118.35C442.538 118.293 442.393 118.236 442.251 118.174C442.03 118.079 441.808 117.984 441.586 117.888C440.375 117.371 439.151 116.847 438.037 116.153C436.169 114.988 435.073 113.343 436.426 111.133C437.669 109.083 439.258 109.95 440.774 110.776C440.804 110.792 440.834 110.808 440.863 110.824C442.988 111.99 445.249 112.949 447.597 113.48C451.76 114.422 456.626 111.63 457.551 107.98C458.219 105.308 455.683 102.327 451.383 100.939C444.873 98.8315 438.996 100.356 433.736 104.417C430.687 106.764 429.59 110.859 430.755 113.994ZM441.405 106.432C441.401 106.435 441.398 106.437 441.395 106.44V106.423C441.398 106.426 441.401 106.429 441.405 106.432ZM447.563 103.664C445.476 103.955 443.594 104.775 441.405 106.432C443.748 108.824 445.973 110.019 448.796 108.821C450.304 108.187 452.172 107.331 451.503 105.206C450.938 103.39 449.105 103.459 447.563 103.664Z" fill="#2F43EE"/>
</svg>
