<svg width="22" height="20" viewBox="0 0 22 20" fill="none" xmlns="http://www.w3.org/2000/svg">
<path d="M12.276 20C11.8926 20 11.6135 19.875 11.4385 19.625C11.2635 19.375 11.2426 19.0667 11.376 18.7L15.051 8.95C15.151 8.68333 15.3343 8.45833 15.601 8.275C15.8676 8.09167 16.1426 8 16.426 8C16.7093 8 16.9885 8.09167 17.2635 8.275C17.5385 8.45833 17.726 8.68333 17.826 8.95L21.576 18.6C21.726 18.9833 21.7093 19.3125 21.526 19.5875C21.3426 19.8625 21.0343 20 20.601 20C20.4176 20 20.2426 19.9417 20.076 19.825C19.9093 19.7083 19.7926 19.5583 19.726 19.375L18.901 16.85H14.101L13.151 19.4C13.0843 19.5667 12.9676 19.7083 12.801 19.825C12.6343 19.9417 12.4593 20 12.276 20ZM14.651 15.1H18.201L16.451 10.25H16.401L14.651 15.1ZM6.22598 6.55C6.47598 6.98333 6.75098 7.40417 7.05098 7.8125C7.35098 8.22083 7.67598 8.64167 8.02598 9.075C8.77598 8.29167 9.40098 7.47917 9.90098 6.6375C10.401 5.79583 10.826 4.91667 11.176 4H1.00098C0.717643 4 0.480143 3.90417 0.288477 3.7125C0.0968099 3.52083 0.000976562 3.28333 0.000976562 3C0.000976562 2.71667 0.0968099 2.47917 0.288477 2.2875C0.480143 2.09583 0.717643 2 1.00098 2H7.00098V1C7.00098 0.716667 7.09681 0.479167 7.28848 0.2875C7.48014 0.0958333 7.71764 0 8.00098 0C8.28431 0 8.52181 0.0958333 8.71348 0.2875C8.90514 0.479167 9.00098 0.716667 9.00098 1V2H15.001C15.2843 2 15.5218 2.09583 15.7135 2.2875C15.9051 2.47917 16.001 2.71667 16.001 3C16.001 3.28333 15.9051 3.52083 15.7135 3.7125C15.5218 3.90417 15.2843 4 15.001 4H13.176C12.8093 5.15 12.3218 6.27917 11.7135 7.3875C11.1051 8.49583 10.3593 9.55 9.47598 10.55L11.926 13.025L11.176 15.05L8.00098 12L3.67598 16.325C3.49264 16.5083 3.26764 16.6 3.00098 16.6C2.73431 16.6 2.50931 16.5 2.32598 16.3C2.12598 16.1167 2.02598 15.8917 2.02598 15.625C2.02598 15.3583 2.12598 15.125 2.32598 14.925L6.72598 10.525C6.29264 10.0083 5.88431 9.4875 5.50098 8.9625C5.11764 8.4375 4.76764 7.9 4.45098 7.35C4.25098 6.98333 4.23431 6.66667 4.40098 6.4C4.56764 6.13333 4.86764 6 5.30098 6C5.48431 6 5.66348 6.05417 5.83848 6.1625C6.01348 6.27083 6.14264 6.4 6.22598 6.55Z" fill="#616161"/>
</svg>
