<svg width="18" height="18" viewBox="0 0 18 18" fill="none" xmlns="http://www.w3.org/2000/svg">
<path d="M12.15 13.4C11.95 13.2 11.85 12.9531 11.85 12.6594C11.85 12.3656 11.95 12.1208 12.15 11.925L14.025 10.05H7.075C6.79167 10.05 6.54583 9.94583 6.3375 9.7375C6.12917 9.52917 6.025 9.28333 6.025 9C6.025 8.71667 6.12917 8.47083 6.3375 8.2625C6.54583 8.05417 6.79167 7.95 7.075 7.95H13.95L12.125 6.1C11.9417 5.89555 11.85 5.65278 11.85 5.37168C11.85 5.09056 11.95 4.85 12.15 4.65C12.3458 4.45 12.5906 4.35 12.8844 4.35C13.1781 4.35 13.425 4.45 13.625 4.65L17.25 8.275C17.3682 8.385 17.4519 8.50417 17.5011 8.6325C17.5504 8.76083 17.575 8.89167 17.575 9.025C17.575 9.15833 17.5504 9.28917 17.5011 9.4175C17.4519 9.54583 17.3682 9.665 17.25 9.775L13.6 13.425C13.4 13.625 13.1625 13.725 12.8875 13.725C12.6125 13.725 12.3667 13.6167 12.15 13.4ZM2.1 18C1.5225 18 1.02813 17.7944 0.616875 17.3831C0.205625 16.9719 0 16.4775 0 15.9V2.1C0 1.5225 0.205625 1.02812 0.616875 0.616875C1.02813 0.205625 1.5225 0 2.1 0H7.93658C8.21219 0 8.45417 0.104167 8.6625 0.3125C8.87083 0.520833 8.975 0.766667 8.975 1.05C8.975 1.33333 8.87083 1.57917 8.6625 1.7875C8.45417 1.99583 8.21219 2.1 7.93658 2.1H2.1V15.9H7.93658C8.21219 15.9 8.45417 16.0042 8.6625 16.2125C8.87083 16.4208 8.975 16.6667 8.975 16.95C8.975 17.2333 8.87083 17.4792 8.6625 17.6875C8.45417 17.8958 8.21219 18 7.93658 18H2.1Z" fill="#212121"/>
</svg>
