<svg width="79" height="16" viewBox="0 0 79 16" fill="none" xmlns="http://www.w3.org/2000/svg">
<path d="M14.56 6.24039V15.0004H11.82V7.24039H8.9V15.0004H6.16V7.24039H3.24V15.0004H0.5V4.90039H2.76L3.24 5.72039L4.66 4.90039H6.58L8.44 5.98039L10.32 4.90039H12.24L14.56 6.24039Z" fill="#3042EE"/>
<path d="M20.5508 9.00039V15.0004H17.7508V1.00039H20.5508V6.60039H26.0508V1.00039H28.8508V15.0004H26.0508V9.00039H20.5508Z" fill="#3042EE"/>
<path d="M40.343 12.6604V15.0004H34.363L32.043 13.6604V6.24039L34.363 4.90039H38.023L40.343 6.24039V11.0204H34.783V12.6604H40.343ZM34.783 7.24039V8.96039H37.603V7.24039H34.783Z" fill="#3042EE"/>
<path d="M45.6916 11.0604V12.8004H48.5116V11.0604H45.6916ZM45.2716 15.1004L42.9516 13.7604V10.3004L45.2716 8.96039H48.5116V7.34039H43.9516V5.00039H48.9316L51.2516 6.34039V15.1004H49.9316L48.5116 14.2804L47.0916 15.1004H45.2716Z" fill="#3042EE"/>
<path d="M56.57 15.0004L54.25 13.6604V0.400391H56.99V12.6604H58.99V15.0004H56.57Z" fill="#3042EE"/>
<path d="M59.993 7.34039V5.00039H61.833V3.32039L64.573 1.74039V5.00039H66.773V7.34039H64.573V12.6604H66.773V15.0004H64.153L61.833 13.6604V7.34039H59.993Z" fill="#3042EE"/>
<path d="M72.1072 15.0004H69.3672V0.400391H72.1072V5.72039L73.5272 4.90039H76.1472L78.4672 6.24039V15.0004H75.7272V7.24039H72.1072V15.0004Z" fill="#3042EE"/>
</svg>
