<svg width="20" height="20" viewBox="0 0 20 20" fill="none" xmlns="http://www.w3.org/2000/svg">
<path d="M7.91634 16.6673C6.63856 16.6673 5.55523 16.2229 4.66634 15.334C3.77745 14.4451 3.33301 13.3618 3.33301 12.084C3.33301 10.8062 3.77745 9.72287 4.66634 8.83398C5.55523 7.9451 6.63856 7.50065 7.91634 7.50065C8.37467 7.50065 8.82259 7.56315 9.26009 7.68815C9.69759 7.81315 10.1038 8.01454 10.4788 8.29232L13.6872 5.08398H12.5413C12.3052 5.08398 12.1004 4.99718 11.9268 4.82357C11.7531 4.64996 11.6663 4.4451 11.6663 4.20898C11.6663 3.97287 11.7531 3.76801 11.9268 3.5944C12.1004 3.42079 12.3052 3.33398 12.5413 3.33398H15.7913C16.0275 3.33398 16.2323 3.42079 16.4059 3.5944C16.5795 3.76801 16.6663 3.97287 16.6663 4.20898V7.45898C16.6663 7.6951 16.5795 7.89996 16.4059 8.07357C16.2323 8.24718 16.0275 8.33398 15.7913 8.33398C15.5552 8.33398 15.3504 8.24718 15.1768 8.07357C15.0031 7.89996 14.9163 7.6951 14.9163 7.45898V6.29232L11.708 9.50065C11.9719 9.88954 12.1698 10.3027 12.3018 10.7402C12.4337 11.1777 12.4997 11.6257 12.4997 12.084C12.4997 13.3618 12.0552 14.4451 11.1663 15.334C10.2775 16.2229 9.19412 16.6673 7.91634 16.6673ZM7.91634 9.25065C7.12467 9.25065 6.45454 9.52496 5.90592 10.0736C5.35731 10.6222 5.08301 11.2923 5.08301 12.084C5.08301 12.8757 5.35731 13.5458 5.90592 14.0944C6.45454 14.643 7.12467 14.9173 7.91634 14.9173C8.70801 14.9173 9.37815 14.643 9.92676 14.0944C10.4754 13.5458 10.7497 12.8757 10.7497 12.084C10.7497 11.2923 10.4754 10.6222 9.92676 10.0736C9.37815 9.52496 8.70801 9.25065 7.91634 9.25065Z" fill="#616161"/>
</svg>
