<svg width="20" height="20" viewBox="0 0 20 20" fill="none" xmlns="http://www.w3.org/2000/svg">
<path d="M16.5833 10C16.3472 10 16.1389 9.92014 15.9583 9.76042C15.7778 9.60069 15.6736 9.39583 15.6458 9.14583C15.4653 7.88194 14.9306 6.80208 14.0417 5.90625C13.1528 5.01042 12.0764 4.47222 10.8125 4.29167C10.5625 4.26389 10.3576 4.15972 10.1979 3.97917C10.0382 3.79861 9.95833 3.59028 9.95833 3.35417C9.95833 3.11806 10.0451 2.91319 10.2188 2.73958C10.3924 2.56597 10.5972 2.49306 10.8333 2.52083C12.5694 2.71528 14.0521 3.42708 15.2813 4.65625C16.5104 5.88542 17.2222 7.375 17.4167 9.125C17.4444 9.36111 17.375 9.56597 17.2083 9.73958C17.0417 9.91319 16.8333 10 16.5833 10ZM13.2292 10C13.0347 10 12.8472 9.92708 12.6667 9.78125C12.4861 9.63542 12.3611 9.44444 12.2917 9.20833C12.1806 8.84722 11.9861 8.52778 11.7083 8.25C11.4306 7.97222 11.1111 7.77083 10.75 7.64583C10.5139 7.5625 10.3229 7.4375 10.1771 7.27083C10.0313 7.10417 9.95833 6.91667 9.95833 6.70833C9.95833 6.43056 10.0521 6.20833 10.2396 6.04167C10.4271 5.875 10.6389 5.81944 10.875 5.875C11.6667 6.05556 12.3507 6.43403 12.9271 7.01042C13.5035 7.58681 13.8819 8.27778 14.0625 9.08333C14.1181 9.31944 14.0625 9.53125 13.8958 9.71875C13.7292 9.90625 13.5069 10 13.2292 10ZM16.6458 17.5C14.8264 17.5 13.066 17.1042 11.3646 16.3125C9.66319 15.5208 8.15625 14.4688 6.84375 13.1563C5.53125 11.8438 4.47917 10.3368 3.6875 8.63542C2.89583 6.93403 2.5 5.17361 2.5 3.35417C2.5 3.11806 2.58681 2.91667 2.76042 2.75C2.93403 2.58333 3.13889 2.5 3.375 2.5H6.83333C7.02778 2.5 7.19792 2.5625 7.34375 2.6875C7.48958 2.8125 7.57639 2.97222 7.60417 3.16667L8.1875 6.14583C8.21528 6.32639 8.20833 6.49306 8.16667 6.64583C8.125 6.79861 8.04861 6.93056 7.9375 7.04167L5.91667 9.10417C6.44444 10.0486 7.14236 10.9583 8.01042 11.8333C8.87847 12.7083 9.83333 13.4583 10.875 14.0833L12.8333 12.0833C12.9722 11.9444 13.125 11.8507 13.2917 11.8021C13.4583 11.7535 13.6389 11.7431 13.8333 11.7708L16.8333 12.3958C17.0278 12.4236 17.1875 12.5104 17.3125 12.6563C17.4375 12.8021 17.5 12.9722 17.5 13.1667V16.625C17.5 16.8611 17.4167 17.066 17.25 17.2396C17.0833 17.4132 16.8819 17.5 16.6458 17.5Z" fill="#616161"/>
</svg>
