<svg width="16" height="16" viewBox="0 0 16 16" fill="none" xmlns="http://www.w3.org/2000/svg">
<path d="M8 7.97461C6.9 7.97461 6 7.62461 5.3 6.92461C4.6 6.22461 4.25 5.32461 4.25 4.22461C4.25 3.12461 4.6 2.22461 5.3 1.52461C6 0.824609 6.9 0.474609 8 0.474609C9.1 0.474609 10 0.824609 10.7 1.52461C11.4 2.22461 11.75 3.12461 11.75 4.22461C11.75 5.32461 11.4 6.22461 10.7 6.92461C10 7.62461 9.1 7.97461 8 7.97461ZM1.5 15.9996C1.08333 15.9996 0.729167 15.8538 0.4375 15.5621C0.145833 15.2704 0 14.9163 0 14.4996V13.6496C0 13.0163 0.158333 12.4746 0.475 12.0246C0.791667 11.5746 1.2 11.2329 1.7 10.9996C2.81667 10.4996 3.8875 10.1246 4.9125 9.87461C5.9375 9.62461 6.96667 9.49961 8 9.49961C9.03333 9.49961 10.0583 9.62878 11.075 9.88711C12.0917 10.1454 13.1583 10.5163 14.275 10.9996C14.7917 11.2329 15.2083 11.5746 15.525 12.0246C15.8417 12.4746 16 13.0163 16 13.6496V14.4996C16 14.9163 15.8542 15.2704 15.5625 15.5621C15.2708 15.8538 14.9167 15.9996 14.5 15.9996H1.5Z" fill="white"/>
</svg>
