<svg width="67" height="66" viewBox="0 0 67 66" fill="none" xmlns="http://www.w3.org/2000/svg">
<path d="M33.4409 60.032C48.5603 60.032 60.8169 47.7754 60.8169 32.656C60.8169 17.5367 48.5603 5.28003 33.4409 5.28003C18.3216 5.28003 6.06494 17.5367 6.06494 32.656C6.06494 47.7754 18.3216 60.032 33.4409 60.032Z" fill="white"/>
<path d="M33.499 1.52105e-08C26.997 0.000197795 20.6411 1.92845 15.2349 5.54092C9.82878 9.15339 5.61527 14.2878 3.12719 20.295C0.639111 26.3021 -0.0117814 32.9121 1.25682 39.2892C2.52542 45.6663 5.65654 51.5239 10.2542 56.1215C14.8519 60.719 20.7097 63.85 27.0868 65.1184C33.4639 66.3868 40.0739 65.7357 46.081 63.2474C52.088 60.7592 57.2223 56.5455 60.8346 51.1393C64.447 45.733 66.375 39.377 66.375 32.875C66.375 28.5577 65.5246 24.2827 63.8725 20.2941C62.2203 16.3054 59.7986 12.6813 56.7458 9.62851C53.693 6.57577 50.0687 4.15424 46.08 2.50217C42.0913 0.850109 37.8163 -0.000131309 33.499 1.52105e-08ZM51.599 22.794L28.115 46.277C27.6747 46.7172 27.0776 46.9644 26.455 46.9644C25.8324 46.9644 25.2353 46.7172 24.795 46.277L15.402 36.884C15.1802 36.6697 15.0028 36.4139 14.8799 36.1311C14.7569 35.8483 14.6909 35.544 14.6856 35.2357C14.6748 34.6129 14.9118 34.0115 15.3445 33.5635C15.7772 33.1155 16.3701 32.8578 16.9929 32.8471C17.6156 32.8363 18.2171 33.0733 18.665 33.506L18.723 33.564L26.455 41.3L48.277 19.474C48.72 19.0472 49.3128 18.8112 49.928 18.817C50.5431 18.8227 51.1315 19.0696 51.5664 19.5046C52.0014 19.9396 52.2483 20.5279 52.2541 21.143C52.2598 21.7582 52.0238 22.351 51.597 22.794H51.599Z" fill="#2FC61E"/>
</svg>
