<svg width="18" height="19" viewBox="0 0 18 19" fill="none" xmlns="http://www.w3.org/2000/svg">
<path d="M16.2 18.3863L10.3167 12.503C9.81668 12.9252 9.23634 13.2558 8.57568 13.4947C7.91503 13.7336 7.21202 13.853 6.46667 13.853C4.65933 13.853 3.12971 13.2266 1.87783 11.9738C0.625942 10.7211 0 9.20301 0 7.41968C0 5.63634 0.626392 4.11829 1.87918 2.8655C3.13194 1.61272 4.65277 0.986328 6.44167 0.986328C8.23056 0.986328 9.74861 1.61272 10.9958 2.8655C12.2431 4.11829 12.8667 5.63718 12.8667 7.42218C12.8667 8.14273 12.75 8.83356 12.5167 9.49468C12.2833 10.1558 11.9445 10.7641 11.5 11.3197L17.425 17.2114C17.5861 17.3663 17.6667 17.5564 17.6667 17.7817C17.6667 18.007 17.5783 18.2081 17.4014 18.3849C17.2394 18.547 17.0376 18.628 16.7963 18.628C16.555 18.628 16.3562 18.5474 16.2 18.3863ZM6.45 12.1864C7.76945 12.1864 8.89097 11.7211 9.81458 10.7905C10.7382 9.85995 11.2 8.73635 11.2 7.41968C11.2 6.10299 10.7382 4.97938 9.81458 4.04883C8.89097 3.11828 7.76945 2.653 6.45 2.653C5.1213 2.653 3.9919 3.11828 3.0618 4.04883C2.1317 4.97938 1.66665 6.10299 1.66665 7.41968C1.66665 8.73635 2.1317 9.85995 3.0618 10.7905C3.9919 11.7211 5.1213 12.1864 6.45 12.1864Z" fill="#9E9E9E"/>
</svg>
