<svg width="24" height="24" viewBox="0 0 24 24" fill="none" xmlns="http://www.w3.org/2000/svg">
<path d="M5.66763 12.0667C5.66763 13.0167 5.84541 13.8681 6.20098 14.6209C6.55653 15.3736 7.05653 16.0389 7.70098 16.6167L8.28433 17.05V15C8.28433 14.7611 8.36349 14.5625 8.52183 14.4042C8.68016 14.2458 8.87877 14.1667 9.11765 14.1667C9.35653 14.1667 9.55514 14.2458 9.71348 14.4042C9.87181 14.5625 9.95098 14.7611 9.95098 15V19.1667C9.95098 19.4056 9.87181 19.6042 9.71348 19.7625C9.55514 19.9208 9.35653 20 9.11765 20H4.95098C4.71209 20 4.51349 19.9208 4.35515 19.7625C4.19682 19.6042 4.11765 19.4056 4.11765 19.1667C4.11765 18.9278 4.19682 18.7292 4.35515 18.5708C4.51349 18.4125 4.71209 18.3334 4.95098 18.3334H7.201L6.81765 18.0167C5.81765 17.1945 5.0982 16.2861 4.6593 15.2917C4.22042 14.2972 4.00098 13.2222 4.00098 12.0667C4.00098 10.5 4.40931 9.07362 5.22598 7.7875C6.04264 6.50138 7.13709 5.52222 8.5093 4.85C8.7093 4.75 8.90792 4.74722 9.10515 4.84167C9.30237 4.93611 9.43709 5.08888 9.5093 5.3C9.59264 5.50555 9.59124 5.71388 9.50513 5.925C9.41903 6.1361 9.27598 6.29721 9.07598 6.40833C8.04264 6.96388 7.21625 7.74582 6.5968 8.75415C5.97735 9.7625 5.66763 10.8667 5.66763 12.0667ZM18.3343 11.9333C18.3343 11.15 18.1565 10.3653 17.801 9.57915C17.4454 8.79305 16.9565 8.08888 16.3343 7.46665L15.7676 6.94998V9C15.7676 9.23888 15.6885 9.43749 15.5301 9.59583C15.3718 9.75416 15.1732 9.83333 14.9343 9.83333C14.6954 9.83333 14.4968 9.75416 14.3385 9.59583C14.1801 9.43749 14.101 9.23888 14.101 9V4.83333C14.101 4.59444 14.1801 4.39583 14.3385 4.2375C14.4968 4.07917 14.6954 4 14.9343 4H19.101C19.3399 4 19.5385 4.07917 19.6968 4.2375C19.8551 4.39583 19.9343 4.59444 19.9343 4.83333C19.9343 5.07221 19.8551 5.27082 19.6968 5.42915C19.5385 5.58748 19.3399 5.66665 19.101 5.66665H16.8343L17.2176 6.01665C18.1565 6.9111 18.8551 7.87361 19.3135 8.90417C19.7718 9.93472 20.001 10.9444 20.001 11.9333C20.001 13.4889 19.601 14.9042 18.801 16.1792C18.001 17.4542 16.926 18.4389 15.576 19.1333C15.376 19.2444 15.169 19.2556 14.9552 19.1667C14.7413 19.0778 14.5927 18.9222 14.5093 18.7C14.426 18.4945 14.4274 18.2861 14.5135 18.075C14.5996 17.8639 14.7427 17.7028 14.9427 17.5917C15.9871 17.0472 16.8135 16.2681 17.4218 15.2542C18.0302 14.2403 18.3343 13.1333 18.3343 11.9333Z" fill="#616161"/>
</svg>
