<svg width="188" height="195" viewBox="0 0 188 195" fill="none" xmlns="http://www.w3.org/2000/svg">
<g opacity="0.1">
<path d="M145.762 165.63V192.966C145.762 194.637 146.309 196.02 147.403 197.114C148.497 198.208 149.879 198.755 151.551 198.755H167.134C168.567 198.755 169.779 198.208 170.772 197.114C171.765 196.02 172.262 194.637 172.262 192.966V165.63H200.259C201.692 165.63 202.904 165.083 203.897 163.989C204.89 162.895 205.387 161.512 205.387 159.841V144.257C205.387 142.825 204.89 141.612 203.897 140.619C202.904 139.627 201.692 139.13 200.259 139.13H172.262V111.132C172.262 109.7 171.765 108.487 170.772 107.494C169.779 106.502 168.567 106.005 167.134 106.005H151.551C149.879 106.005 148.497 106.502 147.403 107.494C146.309 108.487 145.762 109.7 145.762 111.132V139.13H118.426C116.754 139.13 115.372 139.627 114.278 140.619C113.184 141.612 112.637 142.825 112.637 144.257V159.841C112.637 161.512 113.184 162.895 114.278 163.989C115.372 165.083 116.754 165.63 118.426 165.63H145.762ZM159.012 295.797C157.587 295.797 156.214 295.701 154.892 295.509C153.569 295.317 152.329 294.918 151.17 294.313C119.254 283.987 93.9952 264.693 75.3924 236.431C56.7897 208.169 47.4883 177.613 47.4883 144.761V79.8867C47.4883 74.4125 49.0295 69.4673 52.1119 65.0511C55.1943 60.6348 59.27 57.4021 64.339 55.3527L150.255 23.2069C153.011 22.2708 155.929 21.8027 159.012 21.8027C162.094 21.8027 165.123 22.2708 168.099 23.2069L254.015 55.3527C258.864 57.4021 262.842 60.6348 265.951 65.0511C269.06 69.4673 270.614 74.4125 270.614 79.8867V144.761C270.614 177.613 261.299 208.169 242.67 236.431C224.041 264.693 198.879 283.987 167.185 294.314C165.805 294.918 164.454 295.317 163.131 295.509C161.809 295.701 160.436 295.797 159.012 295.797Z" fill="#3042EE"/>
</g>
</svg>
