<?xml version="1.0" encoding="UTF-8"?>
<svg xmlns="http://www.w3.org/2000/svg" xmlns:xlink="http://www.w3.org/1999/xlink" width="20px" height="20px" viewBox="0 0 20 20" version="1.1">
<g id="surface1">
<path style=" stroke:none;fill-rule:nonzero;fill:rgb(38.039216%,38.039216%,38.039216%);fill-opacity:1;" d="M 10 12.707031 C 10.863281 12.707031 11.601562 12.402344 12.210938 11.792969 C 12.820312 11.183594 13.125 10.445312 13.125 9.582031 C 13.125 8.71875 12.820312 7.980469 12.210938 7.371094 C 11.597656 6.761719 10.863281 6.457031 10 6.457031 C 9.136719 6.457031 8.398438 6.761719 7.789062 7.375 C 7.179688 7.984375 6.875 8.722656 6.875 9.585938 C 6.875 10.449219 7.179688 11.183594 7.789062 11.792969 C 8.402344 12.402344 9.136719 12.707031 10 12.707031 Z M 9.375 17.292969 L 8.332031 17.292969 C 8.15625 17.292969 8.007812 17.230469 7.886719 17.113281 C 7.769531 16.992188 7.707031 16.84375 7.707031 16.667969 C 7.707031 16.488281 7.769531 16.339844 7.886719 16.222656 C 8.007812 16.101562 8.15625 16.042969 8.332031 16.042969 L 9.375 16.042969 L 9.375 13.90625 C 8.300781 13.746094 7.410156 13.257812 6.695312 12.441406 C 5.980469 11.625 5.625 10.671875 5.625 9.582031 C 5.625 9.113281 5.699219 8.65625 5.84375 8.210938 C 5.988281 7.761719 6.199219 7.347656 6.480469 6.96875 L 5.585938 6.074219 L 4.851562 6.808594 C 4.734375 6.925781 4.59375 6.984375 4.425781 6.984375 C 4.257812 6.988281 4.113281 6.925781 3.988281 6.800781 C 3.871094 6.6875 3.816406 6.542969 3.816406 6.375 C 3.816406 6.203125 3.875 6.054688 3.988281 5.929688 L 4.714844 5.191406 L 2.707031 3.183594 L 2.707031 5 C 2.707031 5.175781 2.648438 5.324219 2.527344 5.445312 C 2.410156 5.566406 2.261719 5.625 2.082031 5.625 C 1.90625 5.625 1.757812 5.566406 1.636719 5.445312 C 1.519531 5.324219 1.457031 5.175781 1.457031 5 L 1.457031 1.792969 C 1.457031 1.582031 1.53125 1.402344 1.675781 1.257812 C 1.820312 1.113281 2 1.042969 2.210938 1.042969 L 5.417969 1.042969 C 5.59375 1.042969 5.742188 1.101562 5.863281 1.222656 C 5.980469 1.339844 6.042969 1.488281 6.042969 1.667969 C 6.042969 1.84375 5.980469 1.992188 5.863281 2.113281 C 5.742188 2.230469 5.59375 2.292969 5.417969 2.292969 L 3.597656 2.292969 L 5.605469 4.300781 L 6.355469 3.550781 C 6.46875 3.4375 6.613281 3.378906 6.785156 3.378906 C 6.953125 3.378906 7.101562 3.441406 7.226562 3.566406 C 7.339844 3.679688 7.398438 3.820312 7.398438 3.992188 C 7.398438 4.164062 7.339844 4.308594 7.226562 4.433594 L 6.492188 5.183594 L 7.394531 6.085938 C 7.769531 5.796875 8.179688 5.578125 8.625 5.429688 C 9.074219 5.28125 9.53125 5.207031 10 5.207031 C 10.46875 5.207031 10.925781 5.28125 11.375 5.429688 C 11.820312 5.578125 12.230469 5.796875 12.605469 6.085938 L 16.402344 2.292969 L 14.582031 2.292969 C 14.40625 2.292969 14.257812 2.230469 14.136719 2.113281 C 14.019531 1.992188 13.957031 1.84375 13.957031 1.667969 C 13.957031 1.488281 14.019531 1.339844 14.136719 1.222656 C 14.257812 1.101562 14.40625 1.042969 14.582031 1.042969 L 17.789062 1.042969 C 18 1.042969 18.179688 1.113281 18.324219 1.257812 C 18.46875 1.402344 18.542969 1.582031 18.542969 1.792969 L 18.542969 5 C 18.542969 5.175781 18.480469 5.324219 18.363281 5.445312 C 18.242188 5.566406 18.09375 5.625 17.917969 5.625 C 17.738281 5.625 17.589844 5.566406 17.472656 5.445312 C 17.351562 5.324219 17.292969 5.175781 17.292969 5 L 17.292969 3.183594 L 13.5 6.964844 C 13.777344 7.347656 13.996094 7.761719 14.148438 8.203125 C 14.300781 8.644531 14.375 9.105469 14.375 9.582031 C 14.375 10.671875 14.019531 11.625 13.304688 12.441406 C 12.589844 13.257812 11.699219 13.746094 10.625 13.90625 L 10.625 16.042969 L 11.667969 16.042969 C 11.84375 16.042969 11.992188 16.101562 12.113281 16.222656 C 12.230469 16.339844 12.292969 16.488281 12.292969 16.667969 C 12.292969 16.84375 12.230469 16.992188 12.113281 17.113281 C 11.992188 17.230469 11.84375 17.292969 11.667969 17.292969 L 10.625 17.292969 L 10.625 18.332031 C 10.625 18.511719 10.566406 18.660156 10.445312 18.777344 C 10.324219 18.898438 10.175781 18.957031 10 18.957031 C 9.824219 18.957031 9.675781 18.898438 9.554688 18.777344 C 9.433594 18.660156 9.375 18.511719 9.375 18.332031 Z M 9.375 17.292969 "/>
</g>
</svg>
