<svg xmlns="http://www.w3.org/2000/svg" width="24" height="24" viewBox="0 0 24 24">
  <g id="Group_16059" data-name="Group 16059" transform="translate(-245 -219)">
    <path id="Path_206347" data-name="Path 206347" d="M15.4,4.27a1.319,1.319,0,0,1,1.6,0l4.787,3.641a.546.546,0,0,1,.107.757l-.72.974a.528.528,0,0,1-.747.108L17.333,7.4V22.051a.537.537,0,0,1-.533.541H15.6a.537.537,0,0,1-.533-.541V7.4L11.973,9.75a.529.529,0,0,1-.747-.108l-.72-.974a.546.546,0,0,1,.107-.757ZM6.267,25.7V17.724a.537.537,0,0,0-.533-.541h-1.2A.537.537,0,0,0,4,17.724v8.383A1.88,1.88,0,0,0,5.867,28H26.133A1.88,1.88,0,0,0,28,26.107V17.724a.537.537,0,0,0-.533-.541h-1.2a.537.537,0,0,0-.533.541V25.7Z" transform="translate(241 215)" fill="#3042EE" fill-rule="evenodd"/>
  </g>
</svg>
