<svg width="20" height="20" viewBox="0 0 20 20" fill="none" xmlns="http://www.w3.org/2000/svg">
<mask id="mask0_48_11" style="mask-type:alpha" maskUnits="userSpaceOnUse" x="0" y="0" width="20" height="20">
<rect width="20" height="20" fill="#D9D9D9"/>
</mask>
<g mask="url(#mask0_48_11)">
<path d="M10 13.3333C10.2362 13.3333 10.4341 13.2535 10.5938 13.0937C10.7535 12.934 10.8334 12.7361 10.8334 12.5C10.8334 12.2639 10.7535 12.066 10.5938 11.9062C10.4341 11.7465 10.2362 11.6667 10 11.6667C9.76393 11.6667 9.56601 11.7465 9.40629 11.9062C9.24657 12.066 9.16671 12.2639 9.16671 12.5C9.16671 12.7361 9.24657 12.934 9.40629 13.0937C9.56601 13.2535 9.76393 13.3333 10 13.3333ZM10 9.99999C10.2362 9.99999 10.4341 9.92013 10.5938 9.76041C10.7535 9.60069 10.8334 9.40277 10.8334 9.16666V6.66666C10.8334 6.43055 10.7535 6.23263 10.5938 6.07291C10.4341 5.91319 10.2362 5.83332 10 5.83332C9.76393 5.83332 9.56601 5.91319 9.40629 6.07291C9.24657 6.23263 9.16671 6.43055 9.16671 6.66666V9.16666C9.16671 9.40277 9.24657 9.60069 9.40629 9.76041C9.56601 9.92013 9.76393 9.99999 10 9.99999ZM10 18.25C9.90282 18.25 9.81254 18.243 9.72921 18.2292C9.64587 18.2153 9.56254 18.1944 9.47921 18.1667C7.60421 17.5417 6.11115 16.3854 5.00004 14.6979C3.88893 13.0104 3.33337 11.1944 3.33337 9.24999V5.31249C3.33337 4.96527 3.43407 4.65277 3.63546 4.37499C3.83685 4.09721 4.09726 3.89582 4.41671 3.77082L9.41671 1.89582C9.61115 1.82638 9.8056 1.79166 10 1.79166C10.1945 1.79166 10.3889 1.82638 10.5834 1.89582L15.5834 3.77082C15.9028 3.89582 16.1632 4.09721 16.3646 4.37499C16.566 4.65277 16.6667 4.96527 16.6667 5.31249V9.24999C16.6667 11.1944 16.1112 13.0104 15 14.6979C13.8889 16.3854 12.3959 17.5417 10.5209 18.1667C10.4375 18.1944 10.3542 18.2153 10.2709 18.2292C10.1875 18.243 10.0973 18.25 10 18.25Z" fill="#EE4549"/>
</g>
</svg>
