<svg width="20" height="20" viewBox="0 0 20 20" fill="none" xmlns="http://www.w3.org/2000/svg">
<path d="M1.70831 16.6667C1.4722 16.6667 1.26734 16.5799 1.09373 16.4062C0.920119 16.2326 0.833313 16.0278 0.833313 15.7917V14.2708C0.833313 13.7847 0.958313 13.3472 1.20831 12.9583C1.45831 12.5694 1.7847 12.2778 2.18748 12.0833C3.02081 11.6667 3.89581 11.3542 4.81248 11.1458C5.72915 10.9375 6.64581 10.8333 7.56248 10.8333C8.47915 10.8333 9.39581 10.941 10.3125 11.1562C11.2291 11.3715 12.1041 11.6806 12.9375 12.0833C13.3403 12.2778 13.6666 12.5694 13.9166 12.9583C14.1666 13.3472 14.2916 13.7847 14.2916 14.2708V15.7917C14.2916 16.0278 14.2048 16.2326 14.0312 16.4062C13.8576 16.5799 13.6528 16.6667 13.4166 16.6667H1.70831ZM15.625 16.6667C15.7361 16.5556 15.8125 16.4236 15.8541 16.2708C15.8958 16.1181 15.9166 15.9583 15.9166 15.7917V14.0833C15.9166 13.5278 15.7604 12.9618 15.4479 12.3854C15.1354 11.809 14.6666 11.3194 14.0416 10.9167C14.7778 11 15.4514 11.1424 16.0625 11.3438C16.6736 11.5451 17.2569 11.7917 17.8125 12.0833C18.3264 12.3611 18.6805 12.6736 18.875 13.0208C19.0694 13.3681 19.1666 13.7847 19.1666 14.2708V15.7917C19.1666 16.0278 19.0798 16.2326 18.9062 16.4062C18.7326 16.5799 18.5278 16.6667 18.2916 16.6667H15.625ZM7.56248 9.97917C6.61804 9.97917 5.82637 9.65972 5.18748 9.02083C4.54859 8.38194 4.22915 7.59028 4.22915 6.64583C4.22915 5.70139 4.54859 4.90972 5.18748 4.27083C5.82637 3.63194 6.61804 3.3125 7.56248 3.3125C8.50692 3.3125 9.29859 3.63194 9.93748 4.27083C10.5764 4.90972 10.8958 5.70139 10.8958 6.64583C10.8958 7.59028 10.5764 8.38194 9.93748 9.02083C9.29859 9.65972 8.50692 9.97917 7.56248 9.97917ZM15.8958 6.64583C15.8958 7.59028 15.5764 8.38194 14.9375 9.02083C14.2986 9.65972 13.5069 9.97917 12.5625 9.97917C12.4097 9.97917 12.1979 9.95833 11.9271 9.91667C11.6562 9.875 11.4444 9.83333 11.2916 9.79167C11.6528 9.34722 11.934 8.85764 12.1354 8.32292C12.3368 7.78819 12.4375 7.22917 12.4375 6.64583C12.4375 6.07639 12.3368 5.52431 12.1354 4.98958C11.934 4.45486 11.6528 3.96528 11.2916 3.52083C11.5 3.45139 11.7153 3.39931 11.9375 3.36458C12.1597 3.32986 12.368 3.3125 12.5625 3.3125C13.5069 3.3125 14.2986 3.63194 14.9375 4.27083C15.5764 4.90972 15.8958 5.70139 15.8958 6.64583Z" fill="#616161"/>
</svg>
